<svg width="192" height="192" viewBox="0 0 192 192" fill="none" xmlns="http://www.w3.org/2000/svg">
<path d="M75.2596 31.4995C75.273 31.4307 75.2999 31.3619 75.2999 31.2878C75.3941 28.4035 75.3538 25.5191 75.3269 22.6348C75.3269 22.5078 75.0712 22.2379 74.9501 22.2326C74.7079 22.222 74.4612 22.2008 74.2189 22.1955C73.5461 22.1796 72.8733 22.1796 72.2005 22.1638C71.8955 22.1585 71.6668 21.7986 71.6937 21.4175C71.9135 18.2157 72.9675 15.4372 74.7258 13.0027C75.7664 11.5632 76.973 10.3565 78.3007 9.30333C80.2473 7.76326 82.3599 6.65186 84.6026 5.88447C85.8944 5.4452 87.1996 5.06415 88.5452 4.91597C89.0925 4.85775 89.6307 4.71486 90.1734 4.60372C90.3304 4.57196 90.5233 4.33381 90.5233 4.17504C90.5323 3.45528 90.5368 2.73022 90.5637 2.01046C90.5726 1.72468 90.622 1.43889 90.6713 1.15839C90.7386 0.782635 90.9449 0.496847 91.2051 0.311615C91.7702 -0.0853121 92.3623 -0.132944 92.9275 0.343369C93.2908 0.650326 93.5285 1.08959 93.5599 1.60824C93.6048 2.3968 93.5913 3.19595 93.6003 3.9898C93.6048 4.31793 93.7662 4.55079 94.0084 4.58255C94.7979 4.69369 95.5873 4.81012 96.3767 4.92126C99.1352 5.30231 101.75 6.24964 104.24 7.68387C106.231 8.83231 108.03 10.3142 109.568 12.2088C110.851 13.7913 111.874 15.5642 112.506 17.6388C112.901 18.9354 113.206 20.2479 113.152 21.6451C113.148 21.8092 112.946 22.1003 112.82 22.1108C112.641 22.132 112.461 22.1743 112.277 22.1743C111.726 22.1849 111.178 22.1796 110.627 22.1849C109.824 22.1955 109.743 22.2961 109.743 23.344C109.739 25.9425 109.743 28.5411 109.739 31.1396C109.739 31.4307 109.761 31.7165 109.828 31.9917C109.801 32.2034 109.748 32.4151 109.748 32.6268C109.743 35.7916 109.743 38.9564 109.748 42.1213C109.748 42.3329 109.801 42.5446 109.828 42.7563C109.676 43.8307 109.739 44.9156 109.775 45.9953C109.779 46.0641 109.792 46.1487 109.828 46.2017C109.905 46.3022 109.994 46.4504 110.093 46.4663C110.456 46.5139 110.82 46.5351 111.187 46.5351C115.413 46.5404 119.638 46.5351 123.863 46.5404C124.352 46.5404 124.841 46.551 125.33 46.5933C125.424 46.5986 125.518 46.7521 125.599 46.8526C125.635 46.895 125.639 46.9849 125.644 47.0484C125.657 47.3342 125.666 47.6253 125.666 47.9164C125.666 52.3249 125.666 56.7335 125.666 61.1367C125.666 61.4966 125.644 61.8565 125.635 62.2163C125.63 62.3751 125.581 62.4968 125.482 62.5921C125.159 62.9202 124.841 63.2589 124.509 63.5818C120.243 67.6992 115.978 71.8114 111.712 75.9288C111.38 76.2464 111.062 76.5851 110.716 76.8868C110.349 77.2149 110.133 77.5959 110.187 78.1675C110.25 78.8873 110.277 79.607 110.326 80.3268C110.353 80.6867 110.407 81.0413 110.429 81.4011C110.595 83.9944 110.761 86.5877 110.927 89.1809C110.981 90.0436 111.048 90.9062 111.111 91.7742C111.129 91.9911 111.156 92.2028 111.169 92.4198C111.335 95.0131 111.497 97.6063 111.663 100.2C111.717 101.062 111.784 101.925 111.851 102.793C111.869 103.01 111.896 103.222 111.91 103.439C112.076 106.032 112.237 108.625 112.403 111.218C112.457 112.081 112.529 112.944 112.591 113.806C112.6 113.949 112.623 114.092 112.632 114.235C112.793 116.754 112.955 119.279 113.121 121.798C113.188 122.803 113.26 123.814 113.331 124.82C113.34 124.963 113.363 125.105 113.372 125.248C113.466 127.773 113.731 130.287 113.861 132.811C113.915 133.822 114.004 134.827 114.072 135.833C114.112 136.41 114.157 136.987 114.188 137.564C114.255 138.934 114.305 140.305 114.471 141.665C114.569 144.19 114.821 146.704 114.96 149.228C115.013 150.239 115.099 151.244 115.17 152.25C115.179 152.393 115.197 152.536 115.206 152.679C115.372 155.272 115.534 157.865 115.7 160.458C115.754 161.321 115.821 162.184 115.884 163.052C115.902 163.269 115.933 163.48 115.942 163.697C116.036 166.153 116.274 168.593 116.417 171.043C116.48 172.123 116.57 173.202 116.646 174.282C116.709 175.145 116.767 176.007 116.83 176.87C116.848 177.129 117.095 177.389 117.328 177.399C117.633 177.415 117.938 177.431 118.243 177.431C119.956 177.436 121.674 177.431 123.388 177.436C123.693 177.436 123.998 177.463 124.303 177.479C124.522 177.489 124.765 177.786 124.769 178.045C124.778 178.553 124.787 179.056 124.787 179.564C124.787 182.962 124.787 186.354 124.787 189.752C124.787 190.186 124.774 190.62 124.765 191.054C124.76 191.175 124.505 191.466 124.397 191.482C124.276 191.503 124.159 191.54 124.038 191.546C123.733 191.556 123.428 191.556 123.119 191.556C102.114 191.556 81.113 191.556 60.108 191.556C59.6191 191.556 59.1257 191.615 58.6457 191.482C58.547 191.456 58.4484 191.313 58.399 191.196C58.3497 191.075 58.3452 190.921 58.3452 190.778C58.3452 186.587 58.3452 182.395 58.3497 178.209C58.3497 178.071 58.3631 177.913 58.417 177.796C58.4708 177.68 58.574 177.537 58.6681 177.521C58.9687 177.468 59.2737 177.447 59.5787 177.442C61.4177 177.436 63.2522 177.442 65.0912 177.436C65.3962 177.436 65.7012 177.415 66.0107 177.405C66.1318 177.399 66.3875 177.14 66.4054 177.008C66.5804 175.727 66.7194 174.436 66.8046 173.139C66.8585 172.276 66.9526 171.414 67.0244 170.551C67.0693 170.048 67.1186 169.545 67.15 169.043C67.2128 168.032 67.2666 167.026 67.4101 166.026C67.4595 165.671 67.4819 165.306 67.5044 164.946C67.5761 163.793 67.6389 162.639 67.7959 161.496C67.8632 160.998 67.8677 160.49 67.9125 159.987C67.9843 159.125 68.065 158.262 68.1368 157.399C68.1861 156.823 68.2265 156.251 68.2758 155.674C68.3476 154.811 68.4238 153.949 68.4956 153.086C68.5315 152.657 68.5853 152.223 68.6077 151.795C68.675 150.641 68.7558 149.493 68.8993 148.344C68.9711 147.773 68.98 147.19 69.0249 146.619C69.0832 145.899 69.146 145.179 69.2133 144.465C69.2447 144.105 69.2985 143.75 69.3209 143.391C69.3972 142.02 69.5362 140.66 69.6573 139.294C69.7964 137.712 69.913 136.129 70.0565 134.552C70.2539 132.398 70.3885 130.239 70.5679 128.08C70.7428 125.995 70.9491 123.915 71.133 121.835C71.1958 121.115 71.1913 120.39 71.281 119.675C71.5367 117.601 71.5681 115.5 71.8372 113.425C71.9 112.928 71.909 112.42 71.9538 111.917C72.0256 111.054 72.1019 110.192 72.1781 109.329C72.223 108.826 72.2723 108.323 72.3037 107.821C72.3665 106.81 72.4203 105.804 72.5594 104.804C72.6087 104.449 72.6311 104.084 72.6536 103.724C72.7253 102.571 72.7881 101.417 72.9406 100.274C73.0079 99.7762 73.0169 99.2681 73.0573 98.7654C73.129 97.9027 73.2098 97.0401 73.2815 96.1774C73.3309 95.6005 73.3712 95.029 73.4206 94.4521C73.4923 93.5894 73.5686 92.7268 73.6403 91.8641C73.6762 91.4355 73.7301 91.0015 73.7525 90.5728C73.8198 89.4191 73.8915 88.2653 74.044 87.1222C74.1023 86.6935 74.1158 86.2595 74.1427 85.8256C74.1965 84.8888 74.2773 83.9574 74.3804 83.0206C74.5643 81.3006 74.6092 79.5647 74.811 77.8447C74.8379 77.633 74.7572 77.416 74.6182 77.2625C74.3984 77.0138 74.1741 76.765 73.9409 76.5375C72.9989 75.6113 72.0525 74.6957 71.1106 73.7696C67.4819 70.2131 63.8577 66.6619 60.2335 63.1055C60.0452 62.9202 59.8702 62.7191 59.6818 62.5339C59.5877 62.4386 59.5294 62.3169 59.5204 62.1581C59.5069 61.9411 59.48 61.7294 59.48 61.5125C59.48 56.8181 59.48 52.1185 59.48 47.4242C59.48 47.2813 59.4979 47.1384 59.5024 46.9902C59.5069 46.8526 59.7491 46.5774 59.8702 46.5721C60.2963 46.5562 60.7269 46.5192 61.153 46.5192C65.2572 46.5139 69.3568 46.5192 73.4609 46.5139C73.9498 46.5139 74.4387 46.498 74.9321 46.4874C75.0353 46.4874 75.2865 46.1911 75.2955 46.0588C75.3717 45.0532 75.3762 44.0794 75.3044 42.8198C75.2999 42.751 75.2775 42.677 75.2596 42.6081C75.291 42.3965 75.3448 42.1848 75.3448 41.9731C75.3493 38.6812 75.3493 35.3841 75.3448 32.0922C75.3448 31.9229 75.2865 31.7112 75.2596 31.4995ZM86.1232 46.5457C86.1232 46.551 86.1232 46.551 86.1232 46.5457C87.7155 46.551 89.3033 46.551 90.8956 46.5457C91.1378 46.5457 91.3845 46.5139 91.6267 46.498C91.7523 46.4927 92.0125 46.2334 92.0259 46.1064C92.0394 45.9635 92.0752 45.8206 92.0752 45.6777C92.0797 43.1533 92.0797 40.6235 92.0752 38.0991C92.0752 37.9562 92.0618 37.8027 92.0125 37.6757C91.9631 37.5539 91.8734 37.4216 91.7747 37.3793C91.6088 37.3052 91.4204 37.2629 91.2455 37.2576C87.8186 37.2523 84.3918 37.2523 80.9695 37.2576C80.7945 37.2576 80.6061 37.3105 80.4447 37.3899C80.346 37.4375 80.2832 37.5857 80.2159 37.6968C80.1845 37.7551 80.1755 37.8344 80.1755 37.9032C80.1755 40.5706 80.18 43.2432 80.1845 45.9106C80.1845 45.9794 80.189 46.0641 80.2204 46.1223C80.2877 46.2387 80.3594 46.3922 80.4581 46.4345C80.6241 46.5086 80.817 46.5298 80.9964 46.5298C82.6963 46.551 84.4097 46.5457 86.1232 46.5457ZM119.189 55.0875C119.189 57.1092 119.185 59.1309 119.194 61.1526C119.194 61.4384 119.207 61.7347 119.261 62.0099C119.284 62.1211 119.427 62.2798 119.517 62.2851C120.921 62.3169 122.329 62.3222 123.733 62.3328C124.101 62.3328 124.321 62.0946 124.321 61.6924C124.325 57.432 124.325 53.177 124.321 48.9166C124.321 48.8478 124.298 48.7737 124.294 48.7049C124.285 48.435 124.047 48.1492 123.818 48.1492C122.473 48.1387 121.127 48.1334 119.786 48.1281C119.728 48.1281 119.669 48.1651 119.606 48.1757C119.472 48.1916 119.252 48.4403 119.243 48.6044C119.225 48.8902 119.194 49.176 119.194 49.467C119.185 51.3352 119.189 53.214 119.189 55.0875ZM85.3606 54.8705C85.3606 54.1508 85.3606 53.4257 85.3606 52.706C85.3606 51.621 85.3606 50.5414 85.3606 49.4565C85.3606 49.2395 85.3517 49.0225 85.3472 48.8055C85.3337 48.4245 85.087 48.1175 84.7731 48.1122C83.4902 48.1069 82.2029 48.1069 80.9201 48.1122C80.799 48.1122 80.6689 48.1334 80.5613 48.1916C80.4581 48.2498 80.3415 48.3504 80.2967 48.4668C80.198 48.7314 80.2069 49.0278 80.2069 49.3189C80.2069 53.0023 80.2069 56.6805 80.2069 60.364C80.2069 60.5069 80.2025 60.6551 80.2114 60.798C80.2204 60.9409 80.2473 61.0838 80.2608 61.2267C80.2742 61.3801 80.4985 61.6448 80.6241 61.6554C82.028 61.7665 83.4319 61.703 84.8403 61.6871C84.8986 61.6871 84.9614 61.6606 85.0197 61.6342C85.1319 61.5918 85.2171 61.4966 85.2664 61.3484C85.3606 61.0785 85.3651 60.7874 85.3651 60.5016C85.3606 58.6281 85.3606 56.7493 85.3606 54.8705ZM72.3351 55.4845C72.3396 55.4845 72.3441 55.4845 72.3486 55.4845C72.3486 53.4628 72.3486 51.4411 72.3486 49.4194C72.3486 49.1336 72.371 48.8425 72.2947 48.5621C72.2588 48.4297 72.0436 48.1598 71.9135 48.1545C70.5051 48.091 69.1011 48.0804 67.6972 48.1598C67.6389 48.1651 67.5716 48.181 67.5268 48.2233C67.4371 48.308 67.307 48.398 67.2846 48.5144C67.2307 48.7896 67.2128 49.086 67.2083 49.3718C67.2038 53.3411 67.2038 57.3156 67.2083 61.2849C67.2083 61.5019 67.2038 61.7241 67.2487 61.9305C67.2756 62.0523 67.3833 62.1793 67.4819 62.2481C67.5806 62.3169 67.7152 62.3381 67.8363 62.3381C69.1819 62.3381 70.5275 62.3275 71.8731 62.3222C72.1108 62.3222 72.3306 62.0576 72.3306 61.7824C72.3351 59.676 72.3351 57.5802 72.3351 55.4845ZM112.717 55.2992C112.717 57.2468 112.717 59.1997 112.721 61.1473C112.721 61.4331 112.73 61.7241 112.784 61.9994C112.807 62.1105 112.941 62.2746 113.031 62.2798C114.498 62.3804 115.964 62.3751 117.431 62.2904C117.642 62.2798 117.848 61.9835 117.848 61.6924C117.853 58.8028 117.857 55.9184 117.862 53.0288C117.862 51.8751 117.862 50.716 117.862 49.5623C117.862 49.2765 117.844 48.9854 117.835 48.6997C117.826 48.4297 117.597 48.1651 117.35 48.1651C116.251 48.144 115.148 48.1281 114.049 48.1228C113.744 48.1228 113.439 48.1492 113.134 48.1651C113.026 48.1704 112.784 48.4668 112.775 48.5991C112.757 48.8849 112.726 49.1707 112.726 49.4565C112.712 51.3988 112.717 53.3463 112.717 55.2992ZM60.866 55.2781C60.866 57.2204 60.866 59.1679 60.866 61.1102C60.866 61.396 60.8615 61.6924 60.9063 61.9729C60.9243 62.0946 61.0589 62.1899 61.1396 62.2957C61.938 62.3804 64.8266 62.3592 65.5218 62.264C65.6654 62.2428 65.7461 62.1581 65.7775 61.9994C65.8044 61.8618 65.8537 61.7242 65.8537 61.5865C65.8582 57.4109 65.8627 53.2352 65.8627 49.0595C65.8627 48.9166 65.8358 48.7737 65.8268 48.6309C65.8134 48.4615 65.6115 48.2128 65.4814 48.181C65.0598 48.0752 64.6292 48.1175 64.2031 48.1228C63.2253 48.1228 62.252 48.144 61.2742 48.1545C61.1755 48.1545 60.9243 48.4668 60.9198 48.5938C60.9019 48.8796 60.8705 49.1654 60.8705 49.4512C60.866 51.3882 60.866 53.3305 60.866 55.2781ZM91.8375 54.8653C91.8375 53.0606 91.842 51.2559 91.8375 49.4512C91.8375 49.1654 91.8017 48.8796 91.7882 48.5938C91.7837 48.4562 91.5415 48.1598 91.4293 48.1545C90.0209 48.0857 88.617 48.091 87.2086 48.1545C87.1503 48.1598 87.0785 48.1651 87.0337 48.2022C86.935 48.2816 86.8004 48.3662 86.7735 48.4774C86.7152 48.7526 86.6928 49.0437 86.6928 49.3294C86.6883 53.0129 86.6883 56.6964 86.6883 60.3799C86.6883 60.5969 86.6973 60.8139 86.7018 61.0308C86.7063 61.0997 86.7287 61.1737 86.7332 61.2425C86.7466 61.396 86.9664 61.6501 87.101 61.6659C87.9308 61.7453 90.8328 61.74 91.4966 61.6501C91.546 61.6448 91.5953 61.5654 91.6402 61.5177C91.6805 61.4701 91.7388 61.4172 91.7523 61.359C91.7882 61.1473 91.8285 60.9356 91.8285 60.7186C91.8375 58.7657 91.8375 56.8128 91.8375 54.8653ZM75.3358 55.4897C75.3403 55.4897 75.3448 55.4897 75.3538 55.4897C75.3538 53.4681 75.3582 51.4464 75.3493 49.43C75.3493 49.1442 75.3134 48.8584 75.2955 48.5726C75.282 48.398 75.0846 48.1651 74.9321 48.1545C74.6899 48.144 74.4432 48.1545 74.201 48.1492C74.0126 48.1492 73.7615 48.398 73.757 48.7314C73.7525 48.9484 73.739 49.1654 73.739 49.3771C73.739 53.3463 73.739 57.3156 73.739 61.2849C73.739 61.5019 73.757 61.7189 73.7615 61.9358C73.7659 62.0523 74.0351 62.3116 74.1562 62.3116C74.3984 62.3116 74.6451 62.3169 74.8873 62.3169C75.116 62.3169 75.3313 62.0523 75.3313 61.7665C75.3358 59.6707 75.3358 57.5802 75.3358 55.4897ZM109.739 55.2992C109.739 57.2415 109.739 59.1891 109.739 61.1314C109.739 61.4172 109.743 61.7083 109.792 61.9835C109.81 62.0999 109.941 62.1952 110.035 62.2798C110.075 62.3169 110.151 62.3063 110.214 62.3063C110.398 62.3116 110.582 62.3222 110.761 62.3169C111.143 62.3063 111.313 62.1052 111.313 61.6659C111.318 57.4162 111.318 53.1664 111.318 48.9166C111.318 48.7737 111.304 48.6203 111.255 48.4933C111.205 48.3715 111.12 48.2181 111.022 48.1863C110.725 48.0804 110.42 48.1016 110.115 48.1492C109.99 48.1704 109.788 48.435 109.779 48.6044C109.761 48.8902 109.734 49.176 109.734 49.4618C109.734 51.4093 109.739 53.3569 109.739 55.2992Z" fill="#1A1A1A"/>
<path d="M74.9786 31.8162C74.9862 32.0251 74.9992 32.234 74.9992 32.4429C75.0003 35.6909 75.0003 38.9442 74.9992 42.1923C74.9992 42.4012 74.9862 42.61 74.9786 42.8189C74.6534 42.8555 74.3271 42.8868 74.0019 42.9234C73.6909 42.9599 73.3808 42.9808 73.0708 43.1375C72.9234 43.2106 72.7749 43.2158 72.6275 43.2367C72.272 43.2837 71.9175 43.315 71.562 43.3568C71.2661 43.3933 70.9701 43.409 70.6753 43.5657C70.5582 43.6283 70.439 43.6335 70.3209 43.6492C69.9512 43.6962 69.5816 43.738 69.2109 43.7798C68.8705 43.8215 68.5302 43.8372 68.1909 44.0095C68.0586 44.0774 67.9253 44.0774 67.792 44.0931C67.4365 44.1348 67.082 44.1714 66.7265 44.2132C66.4457 44.2445 66.1639 44.2706 65.8842 44.4116C65.752 44.4795 65.6187 44.4847 65.4853 44.5056C65.1005 44.5578 64.7157 44.5944 64.3309 44.6414C64.0198 44.6779 63.7098 44.6988 63.3998 44.8607C63.2827 44.9234 63.1635 44.9286 63.0454 44.939C62.6757 44.986 62.305 45.0226 61.9354 45.0696C61.6243 45.1061 61.3143 45.127 61.0043 45.2837C60.872 45.3516 60.7387 45.3568 60.6054 45.3725C60.2358 45.4195 59.8651 45.456 59.4954 45.4978C59.1995 45.5343 58.9036 45.5552 58.6088 45.7067C58.4765 45.7745 58.3432 45.7798 58.2099 45.7954C57.8402 45.8424 57.4695 45.879 57.0999 45.9208C56.804 45.9573 56.5081 45.9834 56.2132 46.1244C56.0517 46.2028 55.888 46.208 55.7254 46.2289C55.3699 46.2759 55.0154 46.302 54.6599 46.349C54.3792 46.3803 54.0984 46.4273 53.8177 46.5474C53.5966 46.6414 53.3743 46.6518 53.1521 46.6832C52.841 46.7249 52.531 46.7458 52.2199 46.7824C51.9533 46.8137 51.6877 46.8398 51.4222 46.9756C51.2899 47.0435 51.1566 47.0539 51.0233 47.0696C50.6233 47.1218 50.2244 47.1584 49.8244 47.2106C49.5578 47.2419 49.2922 47.2628 49.0266 47.4038C48.8944 47.4717 48.761 47.4821 48.6277 47.4978C48.2277 47.55 47.8289 47.5866 47.4289 47.6388C47.1622 47.6701 46.8967 47.7015 46.6311 47.8268C46.4544 47.9103 46.2766 47.9208 46.0989 47.9469C45.7292 47.9939 45.3585 48.0252 44.9889 48.0722C44.7082 48.1088 44.4274 48.1401 44.1467 48.2759C43.97 48.3594 43.7922 48.3646 43.6144 48.3908C43.2741 48.4325 42.9337 48.4586 42.5934 48.5056C42.3126 48.5422 42.0308 48.5631 41.7511 48.7041C41.6037 48.7772 41.4552 48.7876 41.3078 48.8033C40.9382 48.8503 40.5675 48.8816 40.1978 48.9286C39.9171 48.9652 39.6363 48.9913 39.3556 49.1271C39.1648 49.2158 38.9719 49.2263 38.7789 49.2472C38.4234 49.2942 38.0689 49.3203 37.7134 49.3673C37.4619 49.3986 37.2105 49.4247 36.9601 49.5553C36.8126 49.6284 36.6641 49.6388 36.5167 49.6597C36.1764 49.7067 35.836 49.738 35.4956 49.7746C35.1705 49.8111 34.8453 49.8425 34.5201 49.9939C34.3293 50.0827 34.1364 50.0827 33.9434 50.1088C33.6031 50.1506 33.2627 50.1767 32.9223 50.2237C32.6709 50.255 32.4194 50.2707 32.169 50.4064C32.0368 50.4795 31.9034 50.4848 31.7701 50.5004C31.4005 50.5474 31.0308 50.5892 30.6601 50.631C30.349 50.6675 30.039 50.6884 29.729 50.8451C29.5968 50.913 29.4635 50.9182 29.3301 50.9339C28.9605 50.9809 28.5898 51.0174 28.2202 51.0644C27.9242 51.101 27.6283 51.1218 27.3335 51.2681C27.1861 51.3412 27.0376 51.3464 26.8902 51.3673C26.5205 51.4143 26.1498 51.4508 25.7802 51.4926C25.4994 51.5239 25.2176 51.55 24.938 51.691C24.8057 51.7589 24.6724 51.7641 24.5391 51.785C24.1543 51.8373 23.7695 51.8738 23.3847 51.9208C23.0736 51.9574 22.7635 51.9782 22.4535 52.1401C22.3213 52.208 22.188 52.2132 22.0546 52.2289C21.685 52.2759 21.3143 52.3125 20.9447 52.3542C20.6488 52.3908 20.3528 52.4273 20.058 52.5631C19.8672 52.6519 19.6743 52.6571 19.4813 52.6832C19.1562 52.725 18.8299 52.7511 18.5047 52.7877C18.224 52.8242 17.9432 52.8608 17.6625 52.9861C17.4717 53.0749 17.2788 53.0801 17.0858 53.1062C16.7454 53.148 16.4051 53.1741 16.0647 53.2159C15.7981 53.2472 15.5325 53.2733 15.2669 53.4143C15.1347 53.4822 15.0014 53.4874 14.868 53.5083C14.4832 53.5553 14.0984 53.5918 13.7136 53.6388C13.4329 53.6754 13.1521 53.7119 12.8714 53.8373C12.6655 53.9313 12.4573 53.9365 12.2503 53.9678C11.9251 54.0096 11.5988 54.0357 11.2737 54.0723C11.007 54.1036 10.7414 54.1297 10.4759 54.2655C10.3436 54.3334 10.2103 54.3438 10.077 54.3595C9.73661 54.4065 9.39625 54.443 9.05589 54.4796C8.71553 54.5161 8.37517 54.5527 8.03589 54.7041C7.81477 54.7981 7.59256 54.8033 7.37035 54.8294C7.05925 54.8712 6.74924 54.8869 6.43815 54.9287C6.18667 54.96 5.93519 54.9861 5.6848 55.1114C5.53847 55.1898 5.38888 55.195 5.24147 55.2159C4.84149 55.2681 4.44259 55.3046 4.04261 55.3569C3.79114 55.3882 3.53966 55.4091 3.28927 55.5396C3.1722 55.6023 3.05297 55.6127 2.93482 55.6284C2.60963 55.6754 2.28336 55.712 1.95818 55.7485C1.57337 55.7955 1.18857 55.8007 0.80485 55.9939C0.761492 56.0148 0.715967 55.9783 0.673692 55.9365C0.62925 55.8895 0.589144 55.759 0.573969 55.5553C0.533863 55.0227 0.49484 54.4796 0.46449 53.9313C0.364766 52.1401 0.271546 50.3438 0.208677 48.5161C0.157731 47.0435 0.0916103 45.5761 0.0807708 44.0722C0.0796869 43.9312 0.077519 43.785 0.0731832 43.644C-0.0308762 40.1662 -0.000525633 36.6727 0.0233213 33.1844C0.0265732 32.7562 0.0395808 32.3332 0.0493363 31.9102C0.0612598 31.4141 0.0764351 30.918 0.0851067 30.422C0.111122 28.7823 0.178327 27.1791 0.237944 25.5655C0.295393 24.0198 0.374522 22.5002 0.455818 20.9859C0.485085 20.4376 0.525191 19.8997 0.565297 19.3618C0.581556 19.1477 0.625998 19.0433 0.669356 19.0328C0.920833 18.9597 1.17231 19.0172 1.4227 19.1216C1.70345 19.2417 1.98419 19.2783 2.26493 19.3148C2.60529 19.3566 2.94566 19.3827 3.28602 19.4245C3.55267 19.4558 3.81824 19.5028 4.0838 19.6177C4.28976 19.7065 4.49787 19.7117 4.70491 19.7378C5.03009 19.7796 5.35636 19.8005 5.68155 19.8422C5.97747 19.8788 6.27339 19.9101 6.56822 20.0459C6.759 20.1347 6.95194 20.1347 7.14489 20.1608C7.51451 20.2078 7.88522 20.2339 8.25485 20.2809C8.5215 20.3122 8.78707 20.3592 9.05264 20.4741C9.24342 20.5577 9.43636 20.5629 9.6293 20.589C9.95449 20.6308 10.2808 20.6464 10.6059 20.6934C10.917 20.7352 11.227 20.7613 11.5371 20.9075C11.6986 20.9859 11.8622 20.9911 12.0248 21.0067C12.3804 21.0485 12.7348 21.0746 13.0904 21.1216C13.4015 21.1634 13.7115 21.1895 14.0215 21.3357C14.1982 21.4193 14.3759 21.4193 14.5537 21.4454C14.8941 21.4872 15.2344 21.5081 15.5748 21.5551C15.8859 21.5968 16.1959 21.6177 16.5059 21.7692C16.6533 21.8423 16.8018 21.8475 16.9492 21.8632C17.2744 21.9049 17.6007 21.931 17.9259 21.9676C18.2662 22.0094 18.6066 22.0303 18.9459 22.1974C19.0933 22.2705 19.2418 22.2705 19.3892 22.2861C19.7296 22.3279 20.0699 22.354 20.4103 22.3958C20.7506 22.4376 21.091 22.4689 21.4303 22.6203C21.6211 22.7091 21.8151 22.7039 22.0069 22.73C22.318 22.7666 22.6281 22.7874 22.9391 22.8292C23.2643 22.871 23.5895 22.9075 23.9147 23.0485C24.1207 23.1425 24.3288 23.1373 24.5358 23.1634C24.9206 23.2104 25.3054 23.2365 25.6902 23.294C25.9124 23.3305 26.1336 23.4193 26.3547 23.4715C26.5617 23.5185 26.7687 23.5603 26.9758 23.5864C27.3606 23.6334 27.7454 23.6647 28.1302 23.7117C28.3665 23.7431 28.6039 23.7796 28.8391 23.8893C28.9865 23.9572 29.135 23.9728 29.2824 23.9885C29.6521 24.0355 30.0228 24.0616 30.3924 24.1086C30.6883 24.1452 30.9842 24.1817 31.2791 24.3123C31.485 24.4062 31.6931 24.4062 31.9002 24.4324C32.2254 24.4741 32.5516 24.495 32.8768 24.5368C33.1727 24.5734 33.4687 24.6099 33.7635 24.7457C33.9543 24.8345 34.1483 24.8345 34.3402 24.8606C34.6805 24.9023 35.0209 24.9232 35.3612 24.9702C35.6572 25.0068 35.9531 25.0433 36.2479 25.1791C36.4387 25.2679 36.6316 25.2679 36.8246 25.294C37.1498 25.3358 37.476 25.3514 37.8012 25.3984C38.1123 25.4402 38.4223 25.4663 38.7323 25.6125C38.9231 25.7013 39.116 25.7013 39.309 25.7274C39.6494 25.7692 39.9897 25.7901 40.3301 25.8371C40.626 25.8736 40.9219 25.9102 41.2167 26.0459C41.4075 26.1347 41.6015 26.1347 41.7934 26.1556C42.1338 26.1974 42.4741 26.2183 42.8145 26.2653C43.1104 26.3018 43.4063 26.3384 43.7012 26.4741C43.8778 26.5577 44.0556 26.5577 44.2334 26.5786C44.5586 26.6204 44.8848 26.6413 45.21 26.683C45.5352 26.7248 45.8604 26.7561 46.1856 26.9023C46.3915 26.9911 46.5996 26.9911 46.8067 27.0172C47.1622 27.059 47.5167 27.0903 47.8722 27.1321C48.1085 27.1634 48.3448 27.2104 48.5811 27.3097C48.8022 27.4037 49.0244 27.4089 49.2467 27.4402C49.6022 27.4872 49.9566 27.5081 50.3122 27.5551C50.5637 27.5864 50.8151 27.623 51.0655 27.7431C51.227 27.8214 51.3907 27.8266 51.5533 27.8475C51.8937 27.8893 52.234 27.9154 52.5744 27.9572C52.9147 27.999 53.2551 28.0251 53.5944 28.187C53.7559 28.2653 53.9196 28.2601 54.0822 28.2809C54.3933 28.3175 54.7033 28.3436 55.0144 28.3802C55.3699 28.4219 55.7244 28.4428 56.0788 28.6152C56.2262 28.6883 56.3747 28.683 56.5221 28.7039C56.8473 28.7457 57.1736 28.7718 57.4988 28.8084C57.8543 28.8501 58.2088 28.8867 58.5632 29.0434C58.754 29.1269 58.948 29.1269 59.1399 29.1478C59.5095 29.1948 59.8802 29.2209 60.2499 29.2679C60.5013 29.2992 60.7528 29.3358 61.0032 29.4559C61.1506 29.529 61.2991 29.5342 61.4465 29.5551C61.7869 29.5969 62.1273 29.623 62.4676 29.6648C62.8232 29.7065 63.1776 29.7327 63.5321 29.905C63.6795 29.9781 63.828 29.9729 63.9754 29.9938C64.3158 30.0355 64.6561 30.0616 64.9965 30.1034C65.3076 30.1452 65.6176 30.1817 65.9276 30.3175C66.1335 30.4115 66.3417 30.4115 66.5487 30.4324C66.8598 30.469 67.1698 30.4898 67.4809 30.5316C67.792 30.5682 68.102 30.5995 68.412 30.7457C68.5735 30.824 68.7372 30.8241 68.8998 30.8449C69.2401 30.8867 69.5805 30.9128 69.9209 30.9546C70.2461 30.9964 70.5712 31.0225 70.8964 31.1739C71.0731 31.2575 71.2509 31.2575 71.4286 31.2784C71.7538 31.3201 72.0801 31.341 72.4053 31.3828C72.7305 31.4246 73.0557 31.4507 73.3808 31.6073C73.5575 31.6909 73.7353 31.6909 73.9131 31.7118C74.2686 31.7483 74.6231 31.7797 74.9786 31.8162Z" fill="#FFCD00"/>
<path d="M110.033 42.9527C110.022 42.7435 110.001 42.5344 110.001 42.3252C110 39.1985 110 36.0717 110.001 32.945C110.001 32.7358 110.022 32.5267 110.033 32.3175C110.442 32.2705 110.85 32.2182 111.259 32.1711C111.667 32.1293 112.076 32.0822 112.483 31.9358C112.745 31.8417 113.011 31.8313 113.276 31.7999C113.924 31.7215 114.574 31.6849 115.22 31.4757C115.625 31.345 116.037 31.3607 116.446 31.3136C116.854 31.2666 117.263 31.2247 117.67 31.0783C117.955 30.979 118.246 30.9685 118.535 30.9319C119.16 30.8587 119.783 30.8169 120.407 30.613C120.789 30.4875 121.175 30.5032 121.561 30.4614C121.969 30.4143 122.376 30.362 122.785 30.2313C123.142 30.1163 123.505 30.1058 123.864 30.0587C124.393 29.9908 124.921 29.9646 125.448 29.7816C125.781 29.6666 126.121 29.6718 126.457 29.63C126.985 29.562 127.514 29.5306 128.04 29.3529C128.398 29.2326 128.761 29.2378 129.122 29.196C129.625 29.1333 130.131 29.0967 130.633 28.9241C130.966 28.8091 131.306 28.8143 131.642 28.7725C132.171 28.7045 132.699 28.6731 133.226 28.4954C133.583 28.3751 133.946 28.3803 134.307 28.3385C134.811 28.2758 135.316 28.2392 135.818 28.0666C136.176 27.9464 136.539 27.9516 136.9 27.9098C137.403 27.8522 137.909 27.8209 138.411 27.6379C138.673 27.5385 138.939 27.5437 139.203 27.5124C139.829 27.4392 140.452 27.4078 141.076 27.1934C141.408 27.0784 141.748 27.0941 142.085 27.0523C142.589 26.9947 143.094 26.9529 143.596 26.7804C143.953 26.6601 144.316 26.6653 144.677 26.6235C145.181 26.5608 145.687 26.5189 146.189 26.3568C146.571 26.2313 146.956 26.2366 147.342 26.1895C147.823 26.132 148.304 26.1006 148.781 25.9229C149.044 25.8235 149.31 25.8287 149.574 25.7974C150.199 25.7242 150.822 25.6928 151.446 25.4784C151.804 25.3582 152.166 25.3738 152.527 25.332C153.008 25.2745 153.489 25.2379 153.966 25.0653C154.252 24.9608 154.542 24.966 154.831 24.9294C155.432 24.8562 156.032 24.8196 156.631 24.6209C156.989 24.5007 157.352 24.5163 157.713 24.4745C158.193 24.417 158.674 24.3856 159.152 24.2078C159.437 24.1033 159.728 24.1085 160.016 24.0719C160.617 23.9987 161.218 23.9621 161.816 23.7634C162.174 23.6431 162.537 23.6588 162.898 23.617C163.379 23.5647 163.859 23.5281 164.337 23.3503C164.599 23.251 164.865 23.2562 165.129 23.2249C165.73 23.1569 166.331 23.1151 166.929 22.9216C167.287 22.8013 167.65 22.8118 168.011 22.77C168.492 22.7124 168.971 22.6654 169.452 22.5085C169.834 22.383 170.219 22.3883 170.605 22.3412C171.086 22.2837 171.565 22.2366 172.046 22.0798C172.428 21.9543 172.814 21.9595 173.2 21.9125C173.68 21.8549 174.159 21.8079 174.64 21.6562C175.022 21.5308 175.408 21.5308 175.794 21.4837C176.275 21.4262 176.754 21.3791 177.235 21.2275C177.617 21.102 178.003 21.1072 178.388 21.0602C178.869 21.0027 179.348 20.9556 179.829 20.804C180.211 20.6785 180.597 20.6785 180.983 20.6314C181.463 20.5739 181.944 20.5425 182.423 20.37C182.709 20.2654 182.999 20.2654 183.288 20.234C183.889 20.1608 184.489 20.1295 185.088 19.9256C185.446 19.8053 185.809 19.821 186.17 19.7739C186.65 19.7164 187.131 19.6798 187.61 19.5125C187.92 19.4027 188.234 19.4027 188.547 19.3661C189.123 19.2981 189.701 19.2824 190.275 19.0628C190.465 18.9896 190.659 19.0158 190.851 19.0001C190.923 18.9948 191.036 19.2615 191.066 19.4968C191.091 19.6955 191.121 19.8942 191.14 20.0981C191.355 22.3778 191.549 24.6575 191.677 26.9738C191.767 28.5895 191.871 30.2104 191.888 31.8574C191.894 32.3541 191.903 32.8561 191.924 33.3528C192.028 35.7005 192.005 38.0586 191.975 40.4115C191.955 41.9069 191.911 43.4076 191.846 44.8925C191.693 48.4323 191.459 51.9303 191.119 55.3603C191.112 55.4283 191.096 55.4858 191.087 55.5538C191.062 55.7525 190.929 56.0244 190.856 55.9982C190.21 55.7996 189.56 55.7943 188.91 55.7159C188.574 55.6793 188.237 55.627 187.903 55.5068C187.688 55.4283 187.471 55.4126 187.255 55.3865C186.918 55.3447 186.582 55.3237 186.245 55.2871C186.053 55.2662 185.86 55.2715 185.669 55.1983C185.023 54.9525 184.373 54.9421 183.725 54.8689C183.341 54.827 182.957 54.78 182.573 54.6492C182.335 54.5656 182.094 54.5499 181.853 54.5185C181.155 54.4349 180.46 54.4087 179.764 54.1787C179.382 54.0532 178.996 54.0741 178.61 54.0323C178.129 53.98 177.649 53.9486 177.171 53.7656C176.956 53.6872 176.74 53.6819 176.523 53.661C176.187 53.6244 175.85 53.6035 175.514 53.5617C175.274 53.5303 175.033 53.5042 174.794 53.4205C174.482 53.3107 174.17 53.2636 173.858 53.2323C173.547 53.2009 173.233 53.1748 172.921 53.1434C172.729 53.1225 172.536 53.1277 172.345 53.0545C171.748 52.8192 171.146 52.814 170.545 52.746C170.112 52.6989 169.68 52.6623 169.249 52.5003C169.034 52.4218 168.817 52.4114 168.601 52.3852C168.264 52.3434 167.928 52.3225 167.592 52.2859C167.4 52.265 167.206 52.2702 167.016 52.1918C166.489 51.9878 165.961 51.9617 165.432 51.9042C164.904 51.8519 164.374 51.8205 163.849 51.6166C163.659 51.5434 163.465 51.5434 163.273 51.5225C162.937 51.4859 162.6 51.4598 162.264 51.4231C162.072 51.4022 161.878 51.4075 161.688 51.329C161.091 51.0937 160.488 51.0885 159.888 51.0205C159.455 50.9735 159.023 50.9369 158.591 50.7748C158.377 50.6964 158.16 50.6859 157.943 50.6598C157.632 50.6232 157.318 50.6022 157.006 50.5656C156.79 50.5395 156.571 50.5447 156.358 50.4663C155.784 50.2467 155.206 50.2258 154.63 50.1683C154.197 50.1212 153.766 50.0898 153.334 49.9225C153.119 49.8389 152.903 49.8336 152.686 49.8127C152.35 49.7709 152.013 49.75 151.677 49.7134C151.46 49.6872 151.242 49.6925 151.029 49.614C150.454 49.3996 149.877 49.3735 149.301 49.316C148.867 49.2689 148.436 49.2323 148.004 49.0702C147.79 48.9866 147.573 48.9814 147.356 48.9604C147.02 48.9186 146.683 48.8977 146.347 48.8611C146.13 48.835 145.914 48.8402 145.699 48.7565C145.125 48.5421 144.547 48.5212 143.971 48.4585C143.538 48.4114 143.106 48.3801 142.675 48.2127C142.46 48.1291 142.243 48.1238 142.027 48.0977C141.69 48.0611 141.354 48.035 141.017 47.9984C140.801 47.9722 140.582 47.9774 140.369 47.8938C139.795 47.6742 139.217 47.6585 138.641 47.5958C138.208 47.5487 137.777 47.5016 137.345 47.3552C137.06 47.2559 136.769 47.2507 136.48 47.2193C135.855 47.1461 135.232 47.1095 134.608 46.9056C134.251 46.7853 133.888 46.801 133.527 46.7592C132.998 46.7016 132.47 46.665 131.943 46.4768C131.681 46.3827 131.415 46.3879 131.151 46.3566C130.526 46.2834 129.9 46.2572 129.279 46.0428C128.946 45.9278 128.606 45.9435 128.269 45.9069C127.716 45.8441 127.163 45.8128 126.614 45.6141C126.351 45.52 126.085 45.5304 125.821 45.499C125.196 45.4258 124.571 45.4102 123.949 45.1801C123.711 45.0912 123.468 45.1017 123.229 45.0755C122.556 44.9971 121.883 44.9814 121.212 44.7409C120.974 44.6572 120.731 44.6677 120.491 44.6415C119.866 44.5683 119.243 44.5265 118.619 44.3278C118.214 44.1971 117.802 44.2128 117.393 44.1657C116.96 44.1187 116.529 44.0873 116.097 43.92C115.882 43.8363 115.666 43.8311 115.449 43.805C115.113 43.7631 114.776 43.7422 114.44 43.7056C114.223 43.6795 114.005 43.6847 113.792 43.6063C113.193 43.3814 112.592 43.3657 111.992 43.303C111.583 43.2612 111.174 43.2141 110.767 43.0677C110.514 42.9841 110.273 42.9893 110.033 42.9527Z" fill="#FFBD00"/>
</svg>
