<svg width="555" height="222" viewBox="0 0 555 222" fill="none" xmlns="http://www.w3.org/2000/svg">
<path d="M310.26 31.4997C310.292 31.7114 310.346 31.9231 310.346 32.1348C310.35 35.4266 310.35 38.7238 310.346 42.0156C310.346 42.2273 310.292 42.439 310.26 42.6507C308.915 42.6878 307.565 42.7195 306.219 42.7566C304.932 42.7936 303.649 42.8148 302.366 42.9736C301.756 43.0476 301.142 43.0529 300.532 43.0741C299.06 43.1217 297.594 43.1535 296.123 43.1958C294.898 43.2329 293.673 43.2488 292.453 43.4075C291.969 43.471 291.476 43.4763 290.987 43.4922C289.457 43.5398 287.928 43.5822 286.394 43.6245C284.985 43.6668 283.577 43.6827 282.173 43.8574C281.626 43.9262 281.074 43.9262 280.522 43.9421C279.051 43.9844 277.584 44.0214 276.113 44.0638C274.952 44.0955 273.785 44.122 272.628 44.2649C272.081 44.3337 271.529 44.339 270.977 44.3601C269.385 44.4131 267.793 44.4501 266.201 44.4978C264.913 44.5348 263.63 44.556 262.348 44.72C261.863 44.7835 261.37 44.7888 260.881 44.7994C259.351 44.847 257.817 44.8841 256.288 44.9317C255.001 44.9688 253.718 44.9899 252.435 45.1487C251.888 45.2175 251.336 45.2228 250.784 45.2387C249.255 45.2863 247.721 45.3234 246.191 45.3657C244.967 45.4027 243.742 45.4239 242.522 45.5774C241.975 45.6462 241.423 45.6515 240.872 45.6674C239.342 45.715 237.808 45.752 236.279 45.7944C235.054 45.8314 233.83 45.8579 232.61 46.0008C231.941 46.0802 231.264 46.0855 230.591 46.1066C229.12 46.1543 227.653 46.1807 226.182 46.2283C225.02 46.2601 223.859 46.3077 222.697 46.4295C221.782 46.5247 220.862 46.5353 219.943 46.5671C218.656 46.6094 217.373 46.6306 216.085 46.6676C214.982 46.6994 213.883 46.7258 212.784 46.8634C212.237 46.9322 211.685 46.9428 211.134 46.9587C209.478 47.0116 207.828 47.0487 206.173 47.1016C205.069 47.1333 203.97 47.1545 202.872 47.2974C202.324 47.3662 201.773 47.3768 201.221 47.3927C199.566 47.4456 197.915 47.4826 196.26 47.5356C195.157 47.5673 194.058 47.5991 192.959 47.7261C192.228 47.8108 191.492 47.8214 190.756 47.8478C189.227 47.8954 187.693 47.9272 186.163 47.9748C185.002 48.0119 183.84 48.0436 182.678 48.1812C181.947 48.2659 181.212 48.2712 180.476 48.2977C179.068 48.34 177.659 48.3665 176.251 48.4141C175.089 48.4511 173.923 48.4723 172.766 48.6152C172.156 48.6893 171.541 48.6999 170.931 48.7158C169.402 48.7634 167.868 48.7951 166.338 48.8428C165.176 48.8798 164.015 48.9063 162.853 49.0439C162.064 49.1339 161.265 49.1444 160.467 49.1656C158.996 49.2132 157.529 49.2397 156.058 49.2873C155.017 49.3191 153.976 49.3456 152.94 49.4779C152.33 49.552 151.716 49.5625 151.106 49.5837C149.697 49.6313 148.289 49.6631 146.881 49.7001C145.535 49.7372 144.189 49.7689 142.844 49.9224C142.054 50.0124 141.256 50.0124 140.457 50.0388C139.049 50.0812 137.641 50.1077 136.232 50.1553C135.192 50.187 134.151 50.2029 133.115 50.3405C132.568 50.4146 132.016 50.4199 131.464 50.4358C129.935 50.4834 128.405 50.5257 126.871 50.5681C125.584 50.6051 124.301 50.6263 123.018 50.7851C122.471 50.8539 121.919 50.8592 121.368 50.875C119.838 50.9227 118.304 50.9597 116.775 51.0074C115.55 51.0444 114.326 51.0656 113.106 51.2138C112.496 51.2878 111.881 51.2931 111.271 51.3143C109.742 51.3619 108.208 51.399 106.678 51.4413C105.516 51.4731 104.35 51.4995 103.193 51.6424C102.646 51.7112 102.094 51.7165 101.542 51.7377C99.95 51.7906 98.3577 51.8277 96.7654 51.8753C95.4781 51.9123 94.1953 51.9335 92.9124 52.0976C92.3652 52.1664 91.8135 52.1717 91.2618 52.1875C89.7323 52.2352 88.1983 52.2722 86.6688 52.3146C85.4443 52.3516 84.2198 52.3887 82.9998 52.5263C82.2103 52.6162 81.4119 52.6215 80.6135 52.648C79.2679 52.6903 77.9178 52.7168 76.5722 52.7538C75.4105 52.7909 74.2488 52.8279 73.0871 52.9549C72.2976 53.0449 71.4992 53.0502 70.7009 53.0767C69.2924 53.119 67.884 53.1455 66.4756 53.1878C65.3722 53.2196 64.2733 53.246 63.1744 53.3889C62.6272 53.4577 62.0755 53.463 61.5238 53.4842C59.9314 53.5318 58.3391 53.5689 56.7468 53.6165C55.5851 53.6535 54.4234 53.6906 53.2617 53.8176C52.4095 53.9129 51.5483 53.9181 50.6916 53.9499C49.346 53.9922 47.9959 54.0187 46.6502 54.0557C45.5468 54.0875 44.4479 54.114 43.349 54.2516C42.8018 54.3204 42.2501 54.3309 41.6984 54.3468C40.29 54.3945 38.8816 54.4315 37.4732 54.4686C36.0648 54.5056 34.6563 54.5426 33.2524 54.6961C32.3374 54.7914 31.4179 54.7967 30.4984 54.8231C29.2111 54.8655 27.9283 54.8814 26.641 54.9237C25.6004 54.9554 24.5598 54.9819 23.5236 55.1089C22.9181 55.1883 22.2991 55.1936 21.6891 55.2148C20.034 55.2677 18.3834 55.3047 16.7283 55.3577C15.6877 55.3894 14.6471 55.4106 13.6109 55.5429C13.1265 55.6064 12.6331 55.617 12.1442 55.6329C10.7986 55.6805 9.44852 55.7175 8.10291 55.7546C6.5106 55.8022 4.91828 55.8075 3.33046 56.0033C3.15105 56.0245 2.96266 55.9875 2.78773 55.9451C2.60383 55.8975 2.43787 55.7652 2.37508 55.5588C2.20912 55.019 2.04764 54.4686 1.92205 53.9129C1.5094 52.0976 1.12366 50.277 0.863503 48.4247C0.652691 46.9322 0.379082 45.4451 0.334229 43.9209C0.329743 43.778 0.320773 43.6298 0.302831 43.4869C-0.127765 39.9622 -0.00217506 36.4216 0.0965033 32.8863C0.109959 32.4523 0.163785 32.0237 0.204153 31.595C0.253492 31.0922 0.316288 30.5894 0.352171 30.0867C0.45982 28.4249 0.737913 26.8001 0.984609 25.1648C1.22233 23.5982 1.54977 22.0582 1.88617 20.5234C2.00728 19.9677 2.17323 19.4226 2.33919 18.8774C2.40647 18.6605 2.59037 18.5546 2.76979 18.544C3.8104 18.4699 4.851 18.5282 5.88713 18.634C7.04884 18.7557 8.21055 18.7928 9.37227 18.8298C10.7807 18.8722 12.1891 18.8986 13.5975 18.941C14.7009 18.9727 15.7998 19.0203 16.8987 19.1368C17.751 19.2267 18.6121 19.232 19.4689 19.2585C20.8145 19.3008 22.1646 19.322 23.5102 19.3643C24.7347 19.4014 25.9592 19.4331 27.1792 19.5707C27.9686 19.6607 28.767 19.6607 29.5654 19.6872C31.095 19.7348 32.629 19.7613 34.1585 19.8089C35.2619 19.8407 36.3608 19.8883 37.4597 20.0047C38.2491 20.0894 39.0475 20.0947 39.8459 20.1211C41.1915 20.1635 42.5416 20.1794 43.8873 20.227C45.1746 20.2693 46.4574 20.2958 47.7402 20.444C48.4085 20.5234 49.0858 20.5287 49.7586 20.5445C51.2298 20.5869 52.6965 20.6133 54.1677 20.661C55.455 20.7033 56.7379 20.7298 58.0207 20.878C58.7518 20.9626 59.4874 20.9626 60.223 20.9891C61.6314 21.0314 63.0398 21.0526 64.4482 21.1002C65.7355 21.1426 67.0183 21.1637 68.3012 21.3172C68.9112 21.3913 69.5257 21.3966 70.1357 21.4125C71.4813 21.4548 72.8314 21.4813 74.177 21.5183C75.5854 21.5607 76.9938 21.5818 78.3978 21.7512C79.0078 21.8253 79.6223 21.8253 80.2323 21.8412C81.6407 21.8835 83.0491 21.91 84.4575 21.9523C85.8659 21.9946 87.2743 22.0264 88.6782 22.1799C89.4677 22.2698 90.2706 22.2646 91.0645 22.291C92.3518 22.3281 93.6346 22.3492 94.9219 22.3916C96.2675 22.4339 97.6131 22.471 98.9587 22.6139C99.811 22.7091 100.672 22.7038 101.529 22.7303C103.121 22.7779 104.713 22.8044 106.306 22.8626C107.225 22.8996 108.14 22.9896 109.055 23.0425C109.912 23.0902 110.769 23.1325 111.625 23.159C113.218 23.2066 114.81 23.2383 116.402 23.286C117.38 23.3177 118.362 23.3548 119.336 23.4659C119.946 23.5347 120.56 23.5506 121.17 23.5665C122.7 23.6141 124.234 23.6406 125.763 23.6882C126.988 23.7252 128.212 23.7623 129.432 23.8946C130.285 23.9899 131.146 23.9899 132.003 24.0163C133.348 24.0587 134.698 24.0798 136.044 24.1222C137.268 24.1592 138.493 24.1963 139.713 24.3339C140.502 24.4238 141.305 24.4238 142.099 24.4503C143.508 24.4926 144.916 24.5138 146.324 24.5614C147.549 24.5985 148.773 24.6355 149.993 24.7731C150.783 24.8631 151.581 24.8631 152.38 24.8896C153.725 24.9319 155.075 24.9478 156.421 24.9954C157.708 25.0378 158.991 25.0642 160.274 25.2124C161.063 25.3024 161.862 25.3024 162.66 25.3288C164.068 25.3712 165.477 25.3923 166.885 25.44C168.11 25.477 169.334 25.5141 170.554 25.6517C171.344 25.7416 172.147 25.7416 172.941 25.7628C174.349 25.8051 175.757 25.8263 177.166 25.8739C178.39 25.911 179.615 25.948 180.835 26.0856C181.566 26.1703 182.302 26.1703 183.037 26.1915C184.383 26.2338 185.733 26.255 187.078 26.2973C188.424 26.3397 189.77 26.3714 191.115 26.5196C191.968 26.6096 192.829 26.6096 193.685 26.636C195.157 26.6784 196.623 26.7101 198.095 26.7525C199.072 26.7842 200.05 26.8319 201.028 26.9324C201.943 27.0277 202.863 27.033 203.782 27.0647C205.253 27.1124 206.72 27.1335 208.191 27.1812C209.232 27.2129 210.272 27.25 211.309 27.3717C211.977 27.4511 212.654 27.4564 213.327 27.4775C214.735 27.5199 216.144 27.5463 217.552 27.5887C218.961 27.631 220.369 27.6575 221.773 27.8215C222.441 27.9009 223.119 27.8956 223.791 27.9168C225.079 27.9538 226.361 27.9803 227.649 28.0173C229.12 28.0597 230.587 28.0809 232.053 28.2555C232.663 28.3296 233.278 28.3243 233.888 28.3455C235.234 28.3878 236.584 28.4143 237.929 28.4513C239.4 28.4937 240.867 28.5307 242.334 28.6895C243.123 28.7742 243.926 28.7742 244.72 28.7953C246.25 28.843 247.784 28.8694 249.313 28.917C250.354 28.9488 251.394 28.9858 252.43 29.1076C253.04 29.1817 253.655 29.187 254.265 29.2081C255.673 29.2505 257.082 29.2769 258.49 29.3193C259.961 29.3616 261.428 29.3881 262.895 29.5627C263.505 29.6368 264.119 29.6315 264.729 29.6527C266.138 29.695 267.546 29.7215 268.955 29.7638C270.242 29.8062 271.525 29.8432 272.808 29.9808C273.66 30.0761 274.521 30.0761 275.378 30.0972C276.665 30.1343 277.948 30.1555 279.235 30.1978C280.522 30.2348 281.805 30.2666 283.088 30.4148C283.756 30.4942 284.434 30.4942 285.106 30.5153C286.515 30.5577 287.923 30.5841 289.332 30.6265C290.677 30.6688 292.023 30.6953 293.368 30.8488C294.1 30.9334 294.835 30.9334 295.571 30.9546C296.916 30.9969 298.267 31.0181 299.612 31.0605C300.958 31.1028 302.303 31.1293 303.649 31.288C304.38 31.3727 305.116 31.3727 305.851 31.3939C307.323 31.4309 308.789 31.4627 310.26 31.4997Z" fill="#FFCD00"/>
<path d="M344.827 42.7721C344.8 42.5604 344.747 42.3488 344.747 42.1371C344.742 38.9722 344.742 35.8074 344.747 32.6426C344.747 32.4309 344.8 32.2192 344.827 32.0075C345.868 31.9599 346.908 31.9069 347.949 31.8593C348.99 31.817 350.03 31.7693 351.066 31.6211C351.735 31.5259 352.412 31.5153 353.085 31.4835C354.735 31.4042 356.391 31.3671 358.037 31.1554C359.068 31.0231 360.118 31.039 361.159 30.9914C362.199 30.9437 363.24 30.9014 364.276 30.7532C365.002 30.6526 365.743 30.6421 366.478 30.605C368.071 30.5309 369.658 30.4886 371.246 30.2822C372.219 30.1552 373.202 30.171 374.184 30.1287C375.225 30.0811 376.261 30.0281 377.301 29.8958C378.212 29.7794 379.136 29.7688 380.051 29.7212C381.397 29.6524 382.742 29.6259 384.083 29.4407C384.931 29.3243 385.797 29.3296 386.653 29.2872C387.999 29.2184 389.345 29.1867 390.686 29.0067C391.596 28.885 392.52 28.8903 393.44 28.8479C394.723 28.7844 396.01 28.7474 397.288 28.5727C398.136 28.4563 399.002 28.4616 399.858 28.4193C401.204 28.3505 402.55 28.3187 403.891 28.1388C404.801 28.017 405.725 28.0223 406.645 27.98C407.928 27.9165 409.215 27.8794 410.493 27.7048C411.404 27.5831 412.328 27.5884 413.247 27.546C414.53 27.4878 415.817 27.4561 417.096 27.2708C417.764 27.1703 418.441 27.1756 419.114 27.1438C420.706 27.0697 422.294 27.038 423.882 26.821C424.73 26.7045 425.595 26.7204 426.452 26.6781C427.735 26.6199 429.022 26.5775 430.301 26.4029C431.211 26.2812 432.135 26.2864 433.055 26.2441C434.337 26.1806 435.625 26.1383 436.903 25.9742C437.876 25.8472 438.859 25.8525 439.841 25.8048C441.066 25.7466 442.29 25.7149 443.506 25.5349C444.174 25.4344 444.851 25.4397 445.524 25.4079C447.116 25.3338 448.704 25.3021 450.292 25.0851C451.203 24.9634 452.127 24.9792 453.046 24.9369C454.271 24.8787 455.495 24.8416 456.711 24.667C457.437 24.5611 458.177 24.5664 458.913 24.5294C460.442 24.4553 461.972 24.4182 463.497 24.2171C464.407 24.0954 465.331 24.1113 466.251 24.0689C467.475 24.0107 468.7 23.979 469.916 23.799C470.642 23.6932 471.382 23.6985 472.118 23.6614C473.647 23.5873 475.177 23.5503 476.702 23.3492C477.612 23.2275 478.536 23.2433 479.456 23.201C480.68 23.1481 481.905 23.111 483.12 22.9311C483.789 22.8305 484.466 22.8358 485.139 22.8041C486.668 22.7353 488.198 22.6929 489.723 22.4971C490.633 22.3754 491.557 22.386 492.477 22.3436C493.701 22.2854 494.921 22.2378 496.146 22.079C497.119 21.952 498.102 21.9573 499.084 21.9097C500.308 21.8514 501.528 21.8038 502.753 21.645C503.726 21.518 504.709 21.5233 505.691 21.4757C506.915 21.4175 508.135 21.3698 509.36 21.2164C510.333 21.0894 511.316 21.0893 512.298 21.0417C513.522 20.9835 514.742 20.9359 515.967 20.7824C516.94 20.6554 517.923 20.6607 518.905 20.613C520.129 20.5548 521.349 20.5072 522.574 20.3537C523.547 20.2267 524.529 20.2267 525.512 20.1791C526.736 20.1208 527.961 20.0891 529.181 19.9144C529.907 19.8086 530.648 19.8086 531.383 19.7768C532.913 19.7028 534.442 19.671 535.967 19.4646C536.878 19.3429 537.802 19.3587 538.721 19.3111C539.946 19.2529 541.17 19.2159 542.39 19.0465C543.18 18.9354 543.978 18.9354 544.777 18.8983C546.243 18.8295 547.714 18.8136 549.177 18.5914C549.661 18.5173 550.154 18.5437 550.643 18.5278C550.827 18.5226 551.114 18.7925 551.191 19.0306C551.253 19.2317 551.33 19.4328 551.379 19.6392C551.926 21.9467 552.42 24.2542 552.747 26.5987C552.976 28.234 553.24 29.8747 553.285 31.5418C553.299 32.0445 553.321 32.5526 553.375 33.0554C553.64 35.4316 553.581 37.8185 553.505 40.2001C553.456 41.7137 553.344 43.2326 553.178 44.7356C552.787 48.3185 552.191 51.8591 551.325 55.3309C551.307 55.3997 551.267 55.4579 551.244 55.5267C551.182 55.7278 550.841 56.003 550.657 55.9766C549.011 55.7755 547.356 55.7702 545.7 55.6908C544.844 55.6537 543.987 55.6008 543.135 55.4791C542.588 55.3997 542.036 55.3838 541.484 55.3574C540.628 55.315 539.771 55.2939 538.914 55.2568C538.425 55.2356 537.932 55.2409 537.447 55.1668C535.801 54.9181 534.146 54.9075 532.496 54.8334C531.518 54.7911 530.54 54.7435 529.562 54.6111C528.957 54.5265 528.342 54.5106 527.728 54.4788C525.951 54.3942 524.18 54.3677 522.408 54.1348C521.435 54.0078 520.452 54.029 519.47 53.9866C518.245 53.9337 517.021 53.902 515.805 53.7167C515.258 53.6374 514.707 53.6321 514.155 53.6109C513.298 53.5738 512.441 53.5527 511.585 53.5103C510.975 53.4786 510.36 53.4521 509.75 53.3674C508.956 53.2563 508.162 53.2087 507.368 53.1769C506.575 53.1452 505.776 53.1187 504.982 53.0869C504.493 53.0658 504 53.0711 503.516 52.997C501.995 52.7588 500.461 52.7535 498.931 52.6847C497.828 52.6371 496.729 52.6001 495.63 52.436C495.083 52.3566 494.531 52.346 493.98 52.3196C493.123 52.2772 492.266 52.2561 491.409 52.219C490.921 52.1978 490.427 52.2031 489.943 52.1237C488.602 51.9173 487.256 51.8909 485.91 51.8327C484.565 51.7797 483.215 51.748 481.878 51.5416C481.394 51.4675 480.9 51.4675 480.411 51.4463C479.555 51.4093 478.698 51.3828 477.841 51.3458C477.352 51.3246 476.859 51.3299 476.374 51.2505C474.854 51.0123 473.32 51.007 471.79 50.9382C470.687 50.8906 469.588 50.8536 468.489 50.6895C467.942 50.6101 467.39 50.5995 466.839 50.5731C466.045 50.536 465.246 50.5149 464.452 50.4778C463.901 50.4514 463.344 50.4566 462.802 50.3773C461.339 50.155 459.868 50.1338 458.402 50.0756C457.298 50.028 456.199 49.9962 455.1 49.8269C454.553 49.7422 454.001 49.7369 453.45 49.7157C452.593 49.6734 451.736 49.6522 450.88 49.6152C450.328 49.5887 449.772 49.594 449.229 49.5146C447.767 49.2976 446.296 49.2712 444.829 49.2129C443.725 49.1653 442.626 49.1283 441.528 48.9642C440.98 48.8795 440.429 48.8742 439.877 48.8531C439.02 48.8107 438.164 48.7896 437.307 48.7525C436.755 48.726 436.203 48.7313 435.656 48.6467C434.194 48.4297 432.723 48.4085 431.256 48.345C430.153 48.2974 429.054 48.2656 427.955 48.0963C427.408 48.0116 426.856 48.0063 426.304 47.9798C425.447 47.9428 424.591 47.9163 423.734 47.8793C423.182 47.8528 422.626 47.8581 422.083 47.7734C420.621 47.5511 419.15 47.5353 417.683 47.4718C416.58 47.4241 415.481 47.3765 414.382 47.2283C413.655 47.1278 412.915 47.1225 412.18 47.0907C410.587 47.0166 409 46.9796 407.412 46.7732C406.501 46.6514 405.577 46.6673 404.658 46.625C403.312 46.5668 401.967 46.5297 400.625 46.3392C399.957 46.2439 399.28 46.2492 398.607 46.2175C397.015 46.1434 395.422 46.1169 393.839 45.8999C392.991 45.7835 392.126 45.7994 391.269 45.7623C389.86 45.6988 388.452 45.6671 387.053 45.466C386.384 45.3707 385.707 45.3813 385.034 45.3495C383.442 45.2754 381.85 45.2596 380.266 45.0267C379.661 44.9367 379.042 44.9473 378.432 44.9208C376.718 44.8415 375.005 44.8256 373.296 44.5821C372.69 44.4975 372.071 44.508 371.461 44.4816C369.869 44.4075 368.281 44.3651 366.693 44.164C365.662 44.0317 364.612 44.0476 363.572 44C362.468 43.9523 361.369 43.9206 360.27 43.7512C359.723 43.6666 359.172 43.6613 358.62 43.6348C357.763 43.5925 356.906 43.5713 356.05 43.5342C355.498 43.5078 354.942 43.5131 354.399 43.4337C352.874 43.2061 351.345 43.1902 349.815 43.1267C348.774 43.0844 347.734 43.0368 346.698 42.8886C346.052 42.8039 345.437 42.8092 344.827 42.7721Z" fill="#FFBD00"/>
<path d="M310.26 31.4995C310.273 31.4307 310.3 31.3619 310.3 31.2878C310.394 28.4035 310.354 25.5191 310.327 22.6348C310.327 22.5078 310.071 22.2379 309.95 22.2326C309.708 22.222 309.461 22.2008 309.219 22.1955C308.546 22.1796 307.873 22.1796 307.201 22.1638C306.896 22.1585 306.667 21.7986 306.694 21.4175C306.913 18.2157 307.968 15.4372 309.726 13.0027C310.766 11.5632 311.973 10.3565 313.301 9.30333C315.247 7.76326 317.36 6.65186 319.603 5.88447C320.894 5.4452 322.2 5.06415 323.545 4.91597C324.092 4.85775 324.631 4.71486 325.173 4.60372C325.33 4.57196 325.523 4.33381 325.523 4.17504C325.532 3.45528 325.537 2.73022 325.564 2.01046C325.573 1.72468 325.622 1.43889 325.671 1.15839C325.739 0.782635 325.945 0.496847 326.205 0.311615C326.77 -0.0853121 327.362 -0.132944 327.927 0.343369C328.291 0.650326 328.528 1.08959 328.56 1.60824C328.605 2.3968 328.591 3.19595 328.6 3.9898C328.605 4.31793 328.766 4.55079 329.008 4.58255C329.798 4.69369 330.587 4.81012 331.377 4.92126C334.135 5.30231 336.75 6.24964 339.24 7.68387C341.231 8.83231 343.03 10.3142 344.568 12.2088C345.851 13.7913 346.874 15.5642 347.506 17.6388C347.901 18.9354 348.206 20.2479 348.152 21.6451C348.148 21.8092 347.946 22.1003 347.82 22.1108C347.641 22.132 347.461 22.1743 347.277 22.1743C346.726 22.1849 346.178 22.1796 345.627 22.1849C344.824 22.1955 344.743 22.2961 344.743 23.344C344.739 25.9425 344.743 28.5411 344.739 31.1396C344.739 31.4307 344.761 31.7165 344.828 31.9917C344.801 32.2034 344.748 32.4151 344.748 32.6268C344.743 35.7916 344.743 38.9564 344.748 42.1213C344.748 42.3329 344.801 42.5446 344.828 42.7563C344.676 43.8307 344.739 44.9156 344.775 45.9953C344.779 46.0641 344.792 46.1487 344.828 46.2017C344.905 46.3022 344.994 46.4504 345.093 46.4663C345.456 46.5139 345.82 46.5351 346.187 46.5351C350.413 46.5404 354.638 46.5351 358.863 46.5404C359.352 46.5404 359.841 46.551 360.33 46.5933C360.424 46.5986 360.518 46.7521 360.599 46.8526C360.635 46.895 360.639 46.9849 360.644 47.0484C360.657 47.3342 360.666 47.6253 360.666 47.9164C360.666 52.3249 360.666 56.7335 360.666 61.1367C360.666 61.4966 360.644 61.8565 360.635 62.2163C360.63 62.3751 360.581 62.4968 360.482 62.5921C360.159 62.9202 359.841 63.2589 359.509 63.5818C355.243 67.6992 350.978 71.8114 346.712 75.9288C346.38 76.2464 346.062 76.5851 345.716 76.8868C345.349 77.2149 345.133 77.5959 345.187 78.1675C345.25 78.8873 345.277 79.607 345.326 80.3268C345.353 80.6867 345.407 81.0413 345.429 81.4011C345.595 83.9944 345.761 86.5877 345.927 89.1809C345.981 90.0436 346.048 90.9062 346.111 91.7742C346.129 91.9911 346.156 92.2028 346.169 92.4198C346.335 95.0131 346.497 97.6063 346.663 100.2C346.717 101.062 346.784 101.925 346.851 102.793C346.869 103.01 346.896 103.222 346.91 103.439C347.076 106.032 347.237 108.625 347.403 111.218C347.457 112.081 347.529 112.944 347.591 113.806C347.6 113.949 347.623 114.092 347.632 114.235C347.793 116.754 347.955 119.279 348.121 121.798C348.188 122.803 348.26 123.814 348.331 124.82C348.34 124.963 348.363 125.105 348.372 125.248C348.466 127.773 348.731 130.287 348.861 132.811C348.915 133.822 349.004 134.827 349.072 135.833C349.112 136.41 349.157 136.987 349.188 137.564C349.255 138.934 349.305 140.305 349.471 141.665C349.569 144.19 349.821 146.704 349.96 149.228C350.013 150.239 350.099 151.244 350.17 152.25C350.179 152.393 350.197 152.536 350.206 152.679C350.372 155.272 350.534 157.865 350.7 160.458C350.754 161.321 350.821 162.184 350.884 163.052C350.902 163.269 350.933 163.48 350.942 163.697C351.036 166.153 351.274 168.593 351.417 171.043C351.48 172.123 351.57 173.202 351.646 174.282C351.709 175.145 351.767 176.007 351.83 176.87C351.848 177.129 352.095 177.389 352.328 177.399C352.633 177.415 352.938 177.431 353.243 177.431C354.956 177.436 356.674 177.431 358.388 177.436C358.693 177.436 358.998 177.463 359.303 177.479C359.522 177.489 359.765 177.786 359.769 178.045C359.778 178.553 359.787 179.056 359.787 179.564C359.787 182.962 359.787 186.354 359.787 189.752C359.787 190.186 359.774 190.62 359.765 191.054C359.76 191.175 359.505 191.466 359.397 191.482C359.276 191.503 359.159 191.54 359.038 191.546C358.733 191.556 358.428 191.556 358.119 191.556C337.114 191.556 316.113 191.556 295.108 191.556C294.619 191.556 294.126 191.615 293.646 191.482C293.547 191.456 293.448 191.313 293.399 191.196C293.35 191.075 293.345 190.921 293.345 190.778C293.345 186.587 293.345 182.395 293.35 178.209C293.35 178.071 293.363 177.913 293.417 177.796C293.471 177.68 293.574 177.537 293.668 177.521C293.969 177.468 294.274 177.447 294.579 177.442C296.418 177.436 298.252 177.442 300.091 177.436C300.396 177.436 300.701 177.415 301.011 177.405C301.132 177.399 301.387 177.14 301.405 177.008C301.58 175.727 301.719 174.436 301.805 173.139C301.858 172.276 301.953 171.414 302.024 170.551C302.069 170.048 302.119 169.545 302.15 169.043C302.213 168.032 302.267 167.026 302.41 166.026C302.459 165.671 302.482 165.306 302.504 164.946C302.576 163.793 302.639 162.639 302.796 161.496C302.863 160.998 302.868 160.49 302.913 159.987C302.984 159.125 303.065 158.262 303.137 157.399C303.186 156.823 303.226 156.251 303.276 155.674C303.348 154.811 303.424 153.949 303.496 153.086C303.531 152.657 303.585 152.223 303.608 151.795C303.675 150.641 303.756 149.493 303.899 148.344C303.971 147.773 303.98 147.19 304.025 146.619C304.083 145.899 304.146 145.179 304.213 144.465C304.245 144.105 304.298 143.75 304.321 143.391C304.397 142.02 304.536 140.66 304.657 139.294C304.796 137.712 304.913 136.129 305.057 134.552C305.254 132.398 305.388 130.239 305.568 128.08C305.743 125.995 305.949 123.915 306.133 121.835C306.196 121.115 306.191 120.39 306.281 119.675C306.537 117.601 306.568 115.5 306.837 113.425C306.9 112.928 306.909 112.42 306.954 111.917C307.026 111.054 307.102 110.192 307.178 109.329C307.223 108.826 307.272 108.323 307.304 107.821C307.367 106.81 307.42 105.804 307.559 104.804C307.609 104.449 307.631 104.084 307.654 103.724C307.725 102.571 307.788 101.417 307.941 100.274C308.008 99.7762 308.017 99.2681 308.057 98.7654C308.129 97.9027 308.21 97.0401 308.282 96.1774C308.331 95.6005 308.371 95.029 308.421 94.4521C308.492 93.5894 308.569 92.7268 308.64 91.8641C308.676 91.4355 308.73 91.0015 308.752 90.5728C308.82 89.4191 308.892 88.2653 309.044 87.1222C309.102 86.6935 309.116 86.2595 309.143 85.8256C309.197 84.8888 309.277 83.9574 309.38 83.0206C309.564 81.3006 309.609 79.5647 309.811 77.8447C309.838 77.633 309.757 77.416 309.618 77.2625C309.398 77.0138 309.174 76.765 308.941 76.5375C307.999 75.6113 307.053 74.6957 306.111 73.7696C302.482 70.2131 298.858 66.6619 295.234 63.1055C295.045 62.9202 294.87 62.7191 294.682 62.5339C294.588 62.4386 294.529 62.3169 294.52 62.1581C294.507 61.9411 294.48 61.7294 294.48 61.5125C294.48 56.8181 294.48 52.1185 294.48 47.4242C294.48 47.2813 294.498 47.1384 294.502 46.9902C294.507 46.8526 294.749 46.5774 294.87 46.5721C295.296 46.5562 295.727 46.5192 296.153 46.5192C300.257 46.5139 304.357 46.5192 308.461 46.5139C308.95 46.5139 309.439 46.498 309.932 46.4874C310.035 46.4874 310.286 46.1911 310.295 46.0588C310.372 45.0532 310.376 44.0794 310.304 42.8198C310.3 42.751 310.278 42.6769 310.26 42.6082C310.291 42.3965 310.345 42.1848 310.345 41.9731C310.349 38.6812 310.349 35.3841 310.345 32.0922C310.345 31.9229 310.286 31.7112 310.26 31.4995ZM321.123 46.5457C321.123 46.551 321.123 46.551 321.123 46.5457C322.715 46.551 324.303 46.551 325.896 46.5457C326.138 46.5457 326.384 46.5139 326.627 46.498C326.752 46.4927 327.012 46.2334 327.026 46.1064C327.039 45.9635 327.075 45.8206 327.075 45.6777C327.08 43.1533 327.08 40.6235 327.075 38.0991C327.075 37.9562 327.062 37.8027 327.012 37.6757C326.963 37.5539 326.873 37.4216 326.775 37.3793C326.609 37.3052 326.42 37.2629 326.245 37.2576C322.819 37.2523 319.392 37.2523 315.969 37.2576C315.795 37.2576 315.606 37.3105 315.445 37.3899C315.346 37.4375 315.283 37.5857 315.216 37.6968C315.184 37.7551 315.176 37.8344 315.176 37.9032C315.176 40.5706 315.18 43.2432 315.185 45.9106C315.185 45.9794 315.189 46.0641 315.22 46.1223C315.288 46.2387 315.359 46.3922 315.458 46.4345C315.624 46.5086 315.817 46.5298 315.996 46.5298C317.696 46.551 319.41 46.5457 321.123 46.5457ZM354.189 55.0875C354.189 57.1092 354.185 59.1309 354.194 61.1526C354.194 61.4384 354.207 61.7347 354.261 62.0099C354.284 62.1211 354.427 62.2798 354.517 62.2851C355.921 62.3169 357.329 62.3222 358.733 62.3328C359.101 62.3328 359.321 62.0946 359.321 61.6924C359.325 57.432 359.325 53.177 359.321 48.9166C359.321 48.8478 359.298 48.7737 359.294 48.7049C359.285 48.435 359.047 48.1493 358.818 48.1493C357.473 48.1387 356.127 48.1334 354.786 48.1281C354.728 48.1281 354.669 48.1651 354.606 48.1757C354.472 48.1916 354.252 48.4403 354.243 48.6044C354.225 48.8902 354.194 49.176 354.194 49.467C354.185 51.3353 354.189 53.214 354.189 55.0875ZM320.361 54.8705C320.361 54.1508 320.361 53.4257 320.361 52.706C320.361 51.621 320.361 50.5414 320.361 49.4565C320.361 49.2395 320.352 49.0225 320.347 48.8055C320.334 48.4244 320.087 48.1175 319.773 48.1122C318.49 48.1069 317.203 48.1069 315.92 48.1122C315.799 48.1122 315.669 48.1334 315.561 48.1916C315.458 48.2498 315.342 48.3504 315.297 48.4668C315.198 48.7314 315.207 49.0278 315.207 49.3189C315.207 53.0023 315.207 56.6805 315.207 60.364C315.207 60.5069 315.202 60.6551 315.211 60.798C315.22 60.9409 315.247 61.0838 315.261 61.2267C315.274 61.3801 315.498 61.6448 315.624 61.6554C317.028 61.7665 318.432 61.703 319.84 61.6871C319.899 61.6871 319.961 61.6606 320.02 61.6342C320.132 61.5918 320.217 61.4966 320.266 61.3484C320.361 61.0785 320.365 60.7874 320.365 60.5016C320.361 58.6281 320.361 56.7493 320.361 54.8705ZM307.335 55.4845C307.34 55.4845 307.344 55.4845 307.349 55.4845C307.349 53.4628 307.349 51.4411 307.349 49.4194C307.349 49.1336 307.371 48.8425 307.295 48.5621C307.259 48.4297 307.044 48.1598 306.913 48.1545C305.505 48.091 304.101 48.0804 302.697 48.1598C302.639 48.1651 302.572 48.181 302.527 48.2233C302.437 48.308 302.307 48.398 302.285 48.5144C302.231 48.7896 302.213 49.086 302.208 49.3718C302.204 53.3411 302.204 57.3156 302.208 61.2849C302.208 61.5019 302.204 61.7241 302.249 61.9305C302.276 62.0523 302.383 62.1793 302.482 62.2481C302.581 62.3169 302.715 62.3381 302.836 62.3381C304.182 62.3381 305.527 62.3275 306.873 62.3222C307.111 62.3222 307.331 62.0576 307.331 61.7824C307.335 59.676 307.335 57.5802 307.335 55.4845ZM347.717 55.2992C347.717 57.2468 347.717 59.1997 347.721 61.1473C347.721 61.4331 347.73 61.7242 347.784 61.9994C347.807 62.1105 347.941 62.2746 348.031 62.2798C349.498 62.3804 350.964 62.3751 352.431 62.2904C352.642 62.2799 352.848 61.9835 352.848 61.6924C352.853 58.8028 352.857 55.9184 352.862 53.0288C352.862 51.8751 352.862 50.716 352.862 49.5623C352.862 49.2765 352.844 48.9854 352.835 48.6997C352.826 48.4297 352.597 48.1651 352.35 48.1651C351.251 48.144 350.148 48.1281 349.049 48.1228C348.744 48.1228 348.439 48.1493 348.134 48.1651C348.026 48.1704 347.784 48.4668 347.775 48.5991C347.757 48.8849 347.726 49.1707 347.726 49.4565C347.712 51.3988 347.717 53.3463 347.717 55.2992ZM295.866 55.2781C295.866 57.2204 295.866 59.1679 295.866 61.1102C295.866 61.396 295.861 61.6924 295.906 61.9729C295.924 62.0946 296.059 62.1899 296.14 62.2957C296.938 62.3804 299.827 62.3592 300.522 62.264C300.665 62.2428 300.746 62.1581 300.777 61.9994C300.804 61.8618 300.854 61.7242 300.854 61.5865C300.858 57.4109 300.863 53.2352 300.863 49.0595C300.863 48.9166 300.836 48.7737 300.827 48.6309C300.813 48.4615 300.612 48.2128 300.481 48.181C300.06 48.0752 299.629 48.1175 299.203 48.1228C298.225 48.1228 297.252 48.144 296.274 48.1545C296.175 48.1545 295.924 48.4668 295.92 48.5938C295.902 48.8796 295.87 49.1654 295.87 49.4512C295.866 51.3882 295.866 53.3305 295.866 55.2781ZM326.838 54.8653C326.838 53.0606 326.842 51.2559 326.838 49.4512C326.838 49.1654 326.802 48.8796 326.788 48.5938C326.784 48.4562 326.541 48.1598 326.429 48.1545C325.021 48.0857 323.617 48.091 322.209 48.1545C322.15 48.1598 322.079 48.1651 322.034 48.2022C321.935 48.2816 321.8 48.3662 321.774 48.4774C321.715 48.7526 321.693 49.0437 321.693 49.3294C321.688 53.0129 321.688 56.6964 321.688 60.3799C321.688 60.5969 321.697 60.8139 321.702 61.0308C321.706 61.0997 321.729 61.1737 321.733 61.2425C321.747 61.396 321.966 61.6501 322.101 61.6659C322.931 61.7453 325.833 61.74 326.497 61.6501C326.546 61.6448 326.595 61.5654 326.64 61.5177C326.681 61.4701 326.739 61.4172 326.752 61.359C326.788 61.1473 326.829 60.9356 326.829 60.7186C326.838 58.7657 326.838 56.8128 326.838 54.8653ZM310.336 55.4897C310.34 55.4897 310.345 55.4897 310.354 55.4897C310.354 53.4681 310.358 51.4464 310.349 49.43C310.349 49.1442 310.313 48.8584 310.295 48.5726C310.282 48.398 310.085 48.1651 309.932 48.1545C309.69 48.144 309.443 48.1545 309.201 48.1493C309.013 48.1493 308.761 48.398 308.757 48.7314C308.752 48.9484 308.739 49.1654 308.739 49.3771C308.739 53.3463 308.739 57.3156 308.739 61.2849C308.739 61.5019 308.757 61.7189 308.761 61.9358C308.766 62.0523 309.035 62.3116 309.156 62.3116C309.398 62.3116 309.645 62.3169 309.887 62.3169C310.116 62.3169 310.331 62.0523 310.331 61.7665C310.336 59.6707 310.336 57.5802 310.336 55.4897ZM344.739 55.2992C344.739 57.2415 344.739 59.1891 344.739 61.1314C344.739 61.4172 344.743 61.7083 344.792 61.9835C344.81 62.0999 344.941 62.1952 345.035 62.2798C345.075 62.3169 345.151 62.3063 345.214 62.3063C345.398 62.3116 345.582 62.3222 345.761 62.3169C346.143 62.3063 346.313 62.1052 346.313 61.6659C346.318 57.4162 346.318 53.1664 346.318 48.9166C346.318 48.7737 346.304 48.6203 346.255 48.4933C346.205 48.3715 346.12 48.2181 346.022 48.1863C345.725 48.0804 345.42 48.1016 345.115 48.1493C344.99 48.1704 344.788 48.435 344.779 48.6044C344.761 48.8902 344.734 49.176 344.734 49.4618C344.734 51.4093 344.739 53.3569 344.739 55.2992Z" fill="white"/>
<path d="M200.292 149.583C200.292 157.892 200.292 166.206 200.292 174.515C200.292 177.188 200.274 179.861 200.103 182.533C200.059 183.253 200.041 183.978 200.014 184.698C199.969 185.852 199.919 187.005 199.762 188.154C199.686 188.725 199.677 189.307 199.614 189.879C199.305 192.673 198.906 195.452 198.166 198.14C196.739 203.316 194.447 207.862 191.106 211.641C188.966 214.06 186.54 215.992 183.884 217.537C181.57 218.881 179.161 219.903 176.654 220.601C175.281 220.982 173.904 221.279 172.509 221.517C169.832 221.982 167.14 222.03 164.445 221.988C163.651 221.977 162.852 221.914 162.058 221.871C161.139 221.824 160.228 221.739 159.318 221.564C158.353 221.379 157.38 221.257 156.416 221.04C154.012 220.501 151.101 219.585 148.181 218.119C146.714 217.383 145.292 216.547 143.924 215.589C140.829 213.419 138.223 210.615 136.115 207.169C134.68 204.825 133.433 202.337 132.338 199.749C132.092 199.167 131.854 198.585 131.625 197.992C131.576 197.871 131.576 197.712 131.571 197.574C131.567 197.399 131.639 197.294 131.764 197.267C131.885 197.246 132.006 197.22 132.127 197.22C134.702 197.214 137.272 197.214 139.847 197.22C140.031 197.22 140.215 197.246 140.394 197.257C140.529 197.267 140.636 197.325 140.708 197.447C140.95 197.86 141.206 198.267 141.435 198.696C142.049 199.866 142.74 200.972 143.48 202.025C146.579 206.428 150.446 209.45 155.115 211.033C157.062 211.694 159.035 212.139 161.054 212.372C162.763 212.567 164.472 212.694 166.189 212.663C167.109 212.647 168.024 212.61 168.939 212.467C169.365 212.403 169.791 212.372 170.217 212.319C173.222 211.959 176.116 211.101 178.879 209.651C180.843 208.619 182.664 207.296 184.342 205.698C185.782 204.327 187.046 202.766 188.083 200.956C188.948 199.453 189.617 197.833 190.065 196.098C190.401 194.785 190.68 193.457 190.877 192.102C191.258 189.461 191.523 186.809 191.559 184.132C191.59 181.819 191.586 179.506 191.599 177.193C191.599 177.029 191.545 176.923 191.473 176.823C191.366 176.68 191.222 176.722 191.029 176.976C190.908 177.135 190.792 177.31 190.666 177.468C190.164 178.104 189.675 178.749 189.159 179.368C185.759 183.454 181.754 186.434 177.228 188.461C175.16 189.387 173.039 190.07 170.863 190.504C169.114 190.848 167.347 191.112 165.566 191.065C164.588 191.038 163.606 191.038 162.628 191.017C162.014 191.001 161.404 190.948 160.802 190.811C159.843 190.599 158.847 190.604 157.905 190.255C155.424 189.731 153.052 188.794 150.746 187.603C147.929 186.148 145.305 184.306 142.892 182.057C137.954 177.458 134.509 171.605 132.379 164.645C131.773 162.671 131.32 160.644 131.015 158.585C130.773 156.95 130.54 155.309 130.526 153.637C130.513 152.483 130.481 151.324 130.486 150.17C130.526 143.46 131.988 137.183 134.711 131.314C138.228 123.719 143.345 118.104 149.894 114.257C152.424 112.769 155.07 111.658 157.824 110.933C159.017 110.621 160.219 110.33 161.448 110.271C162.843 109.996 164.252 109.975 165.66 109.991C166.517 110.001 167.374 110.039 168.226 110.187C168.468 110.229 168.71 110.266 168.957 110.287C171.531 110.557 174.012 111.303 176.439 112.346C179.574 113.69 182.413 115.643 185.024 118.083C186.948 119.882 188.711 121.888 190.366 124.026C190.653 124.397 190.958 124.757 191.263 125.111C191.281 125.132 191.366 125.085 191.42 125.053C191.473 125.021 191.559 124.984 191.559 124.942C191.586 124.582 191.617 124.222 191.617 123.862C191.622 120.824 191.617 117.792 191.622 114.754C191.622 114.103 191.626 113.452 191.63 112.801C191.635 112.372 191.841 112.097 192.16 112.081C192.402 112.071 192.649 112.06 192.895 112.06C194.977 112.06 197.062 112.06 199.144 112.06C199.327 112.06 199.511 112.06 199.695 112.066C200.027 112.076 200.283 112.357 200.292 112.711C200.301 113.145 200.31 113.579 200.31 114.013C200.31 119.073 200.31 124.132 200.31 129.192C200.292 135.998 200.292 142.788 200.292 149.583ZM192.066 151.139C192.03 150.107 191.985 149.17 191.962 148.228C191.913 146.053 191.415 142.925 190.783 140.581C189.518 135.881 187.428 131.774 184.409 128.345C182.588 126.275 180.534 124.598 178.278 123.248C174.676 121.089 170.863 119.909 166.813 119.872C166.14 119.866 165.467 119.898 164.794 119.893C163.377 119.872 161.987 120.168 160.605 120.486C159.049 120.846 157.524 121.38 156.043 122.084C150.343 124.799 145.875 129.202 142.794 135.511C142.089 136.95 141.493 138.453 140.977 139.999C140.192 142.364 139.649 144.815 139.416 147.328C139.107 150.716 139.134 154.103 139.636 157.479C139.99 159.84 140.555 162.115 141.385 164.296C142.861 168.186 145.023 171.472 147.75 174.245C150.971 177.516 154.68 179.612 158.829 180.66C159.789 180.903 160.758 181.051 161.726 181.21C162.884 181.401 164.041 181.48 165.207 181.491C166.862 181.501 168.508 181.417 170.154 181.163C171.98 180.877 173.77 180.437 175.519 179.76C179.004 178.411 182.077 176.235 184.705 173.213C189.016 168.26 191.245 162.152 191.873 155.166C191.998 153.796 192.007 152.42 192.066 151.139Z" fill="white"/>
<path d="M0.0233627 138.034C0.0233627 120.987 0.0233628 103.941 0.0278482 86.8887C0.0278482 86.243 -0.0349473 85.592 0.0951287 84.9517C0.122041 84.8088 0.207264 84.7135 0.341825 84.6712C0.458445 84.6341 0.575064 84.5918 0.69617 84.5865C1.00118 84.5706 1.30618 84.5706 1.61567 84.5706C7.00261 84.5706 12.3896 84.5706 17.7765 84.5706C19.8577 84.5706 21.9389 84.7241 24.0157 84.8405C24.4418 84.867 24.8679 84.9411 25.294 84.9993C25.7784 85.0681 26.2673 85.1422 26.7517 85.2216C28.815 85.555 30.8469 86.0472 32.816 86.8569C38.3599 89.1432 42.3519 93.4512 44.8951 99.675C45.7518 101.771 46.3394 103.978 46.6354 106.264C46.9225 108.476 47.0615 110.71 46.8552 112.959C46.6982 114.684 46.4829 116.388 46.0658 118.061C44.8009 123.152 42.3653 127.28 38.8309 130.535C37.9114 131.382 36.9156 132.085 35.9513 132.842C35.8615 132.916 35.8122 133.07 35.7584 133.197C35.7539 133.207 35.8346 133.287 35.884 133.313C36.1038 133.435 36.3235 133.562 36.5523 133.668C36.7227 133.747 36.9022 133.795 37.0726 133.869C38.952 134.732 40.7999 135.684 42.5627 136.849C44.4959 138.129 46.2587 139.669 47.8016 141.553C50.4884 144.84 52.3453 148.682 53.3904 153.08C54.1081 156.102 54.3368 159.177 54.2112 162.299C54.1933 162.733 54.1619 163.162 54.135 163.596C53.8434 168.296 52.6369 172.646 50.4615 176.599C47.1109 182.686 42.5268 186.925 36.7093 189.296C35.0856 189.957 33.8521 190.264 32.0983 190.688C30.654 191.037 29.1873 191.138 27.7296 191.328C26.819 191.445 25.895 191.434 24.98 191.434C17.1441 191.439 9.3081 191.439 1.47214 191.439C1.10434 191.439 0.736538 191.429 0.373223 191.381C0.274544 191.37 0.157924 191.228 0.1041 191.111C0.0457898 190.995 0.0413047 190.831 0.0413047 190.688C0.0323339 189.968 0.0323337 189.243 0.0323337 188.523C0.0233629 171.693 0.0233627 154.864 0.0233627 138.034ZM8.88199 160.362C8.88199 163.543 8.88199 166.724 8.88199 169.905C8.88199 173.085 8.88199 176.266 8.88647 179.447C8.88647 179.807 8.91787 180.166 8.9403 180.526C8.94927 180.685 9.17354 180.923 9.32156 180.929C9.62656 180.944 9.93157 180.976 10.2366 180.976C13.6051 180.982 16.9736 180.96 20.3421 180.987C22.5489 181.003 24.7468 180.743 26.9491 180.627C27.9314 180.574 28.8913 180.331 29.8601 180.172C31.1295 179.96 32.3854 179.627 33.6054 179.129C37.8486 177.388 41.0063 174.16 43.1054 169.481C43.8231 167.878 44.312 166.179 44.617 164.395C44.8592 162.961 44.8906 161.527 44.8772 160.082C44.8637 158.701 44.6529 157.346 44.3569 156.017C43.8366 153.689 42.935 151.572 41.6925 149.651C40.2617 147.439 38.5079 145.655 36.476 144.258C33.7983 142.416 30.8962 141.321 27.8417 140.818C25.9623 140.506 24.074 140.267 22.1722 140.246C21.4994 140.241 20.8266 140.167 20.1537 140.14C18.6825 140.082 17.2158 140.008 15.7446 139.987C13.8473 139.96 11.9455 139.976 10.0482 139.976C9.80598 139.976 9.55928 140.003 9.31707 140.019C9.17802 140.029 8.94927 140.278 8.94478 140.431C8.92236 140.934 8.89096 141.437 8.89096 141.945C8.88199 148.079 8.88199 154.223 8.88199 160.362ZM8.88199 112.34C8.88199 117.394 8.88199 122.443 8.88199 127.497C8.88199 127.926 8.89544 128.36 8.93133 128.788C8.9403 128.905 9.05243 129.063 9.14663 129.106C9.31258 129.185 9.50097 129.222 9.68038 129.222C13.1072 129.27 16.5296 129.228 19.9519 129C20.4991 128.963 21.0463 128.878 21.5936 128.804C21.9569 128.757 22.3202 128.672 22.6835 128.635C24.0291 128.492 25.3433 128.137 26.6306 127.687C29.3802 126.724 31.7843 125.052 33.7041 122.506C36.2024 119.199 37.5346 115.346 37.5391 110.884C37.5391 110.307 37.5436 109.725 37.5032 109.154C37.3911 107.492 37.0816 105.883 36.5164 104.343C35.4534 101.453 33.7086 99.3098 31.3851 97.7962C30.201 97.0235 28.9361 96.489 27.6309 96.108C25.7874 95.5681 23.9215 95.203 22.0152 95.1553C21.4052 95.1395 20.7907 95.0865 20.1807 95.0865C16.6955 95.0812 13.2059 95.0812 9.72075 95.0812C9.54134 95.0812 9.34847 95.1024 9.17802 95.1712C9.07934 95.2083 8.94927 95.3512 8.9403 95.4623C8.89544 95.8857 8.8775 96.3197 8.8775 96.7483C8.88199 101.945 8.88199 107.143 8.88199 112.34Z" fill="white"/>
<path d="M524.272 150.689C514.902 150.689 505.537 150.689 496.167 150.689C495.615 150.689 495.068 150.716 494.516 150.731C494.359 150.737 494.153 150.97 494.153 151.128C494.148 151.345 494.126 151.562 494.144 151.774C494.301 153.642 494.404 155.516 494.718 157.363C495.077 159.448 495.525 161.411 496.194 163.38C498.208 169.329 501.518 174.044 506.035 177.569C508.192 179.257 510.547 180.437 513.072 181.147C514.687 181.602 516.306 181.935 517.966 181.972C518.518 181.983 519.069 181.993 519.621 181.999C523.218 182.046 526.672 181.173 530.009 179.644C531.664 178.887 533.248 177.95 534.755 176.828C536.576 175.463 538.208 173.843 539.63 171.933C541.128 169.921 542.443 167.746 543.672 165.497C544.035 164.83 544.403 164.163 544.766 163.497C544.838 163.364 545.134 163.295 545.268 163.375C545.322 163.407 545.376 163.444 545.43 163.475C547.489 164.746 549.547 166.016 551.602 167.291C551.709 167.355 551.812 167.445 551.889 167.556C551.961 167.656 552.001 167.799 552.028 167.926C552.041 167.984 551.992 168.064 551.965 168.127C550.651 171.155 549.135 174.034 547.327 176.69C543.156 182.835 537.894 187.111 531.539 189.519C530.26 190.006 528.924 190.35 527.439 190.673C524.416 191.334 521.366 191.53 518.298 191.403C517.688 191.377 517.078 191.308 516.468 191.244C516.042 191.202 515.615 191.139 515.189 191.086C511.57 190.673 508.089 189.614 504.77 187.863C501.325 186.042 498.284 183.512 495.687 180.279C492.197 175.934 489.457 171.017 487.627 165.418C486.855 163.057 486.277 160.633 485.882 158.141C485.312 154.568 485.097 150.975 485.303 147.355C485.774 139.183 487.734 131.869 492.314 124.471C493.978 121.777 495.871 119.321 498.028 117.162C501.437 113.754 505.281 111.319 509.592 109.885C511.067 109.393 512.574 109.091 514.072 108.742C517.06 108.371 520.047 108.054 523.048 108.504C523.353 108.551 523.658 108.567 523.963 108.599C527.65 108.991 531.184 110.086 534.557 111.885C537.935 113.685 540.935 116.151 543.6 119.189C544.923 120.697 546.138 122.322 547.264 124.037C549.87 128.032 551.723 132.473 552.871 137.326C553.414 139.623 553.8 141.957 554.046 144.328C554.235 146.127 554.347 147.921 554.36 149.726C554.36 149.943 554.356 150.165 554.297 150.366C554.266 150.483 554.127 150.626 554.033 150.636C553.607 150.678 553.176 150.684 552.75 150.684C547.789 150.689 542.828 150.684 537.872 150.684C533.333 150.689 528.803 150.689 524.272 150.689ZM519.962 141.898C527.425 141.898 534.889 141.898 542.353 141.898C542.842 141.898 543.331 141.898 543.82 141.898C544.003 141.898 544.187 141.883 544.367 141.872C544.609 141.861 544.802 141.554 544.739 141.263C544.618 140.708 544.506 140.147 544.362 139.596C543.757 137.246 543.012 134.96 542.03 132.79C540.599 129.625 538.688 126.937 536.289 124.73C533.705 122.359 530.825 120.655 527.713 119.485C526.075 118.871 524.393 118.512 522.698 118.236C520.069 118.051 517.446 117.998 514.835 118.58C513.933 118.781 513.045 119.041 512.166 119.342C509.008 120.417 506.196 122.259 503.657 124.704C502.034 126.265 500.643 128.075 499.459 130.112C498.804 131.245 498.217 132.425 497.687 133.648C496.647 136.029 495.862 138.527 495.194 141.073C495.158 141.205 495.167 141.359 495.18 141.496C495.194 141.655 495.27 141.777 495.382 141.814C495.799 141.962 496.234 141.898 496.656 141.898C504.424 141.898 512.193 141.898 519.962 141.898Z" fill="white"/>
<path d="M218.725 136.511C218.725 119.168 218.725 101.825 218.73 84.4819C218.73 83.7621 218.685 83.0371 218.775 82.3173C218.793 82.1744 219.017 81.8939 219.134 81.8834C219.196 81.8781 219.255 81.8622 219.318 81.8622C221.829 81.8622 224.337 81.8675 226.849 81.8675C227.077 81.8675 227.284 82.1374 227.302 82.4338C227.31 82.5767 227.328 82.7195 227.328 82.8677C227.333 83.3758 227.333 83.8786 227.333 84.3866C227.333 97.1042 227.333 109.822 227.333 122.539C227.333 123.476 227.333 124.418 227.346 125.355C227.346 125.492 227.378 125.667 227.454 125.757C227.521 125.831 227.669 125.805 227.777 125.826C228.051 125.439 228.329 125.048 228.602 124.661C230.136 122.492 231.787 120.459 233.617 118.639C236.021 116.252 238.641 114.288 241.552 112.87C243.31 112.013 245.122 111.351 246.988 110.944C248.49 110.616 250.006 110.346 251.549 110.372C252.038 110.383 252.527 110.367 253.021 110.372C254.187 110.377 255.34 110.494 256.492 110.716C257.645 110.938 258.771 111.235 259.888 111.616C264.588 113.214 269.769 117.316 272.913 123.577C274.205 126.143 275.129 128.879 275.694 131.785C276.049 133.616 276.349 135.458 276.515 137.326C276.618 138.475 276.766 139.618 276.834 140.771C277.013 143.873 277.17 146.969 277.165 150.081C277.152 159.332 277.161 168.577 277.161 177.829C277.161 181.803 277.161 185.778 277.157 189.752C277.157 190.186 277.139 190.62 277.098 191.049C277.085 191.165 276.964 191.292 276.865 191.361C276.766 191.425 276.632 191.44 276.511 191.44C274.062 191.446 271.613 191.446 269.164 191.44C269.042 191.44 268.908 191.419 268.809 191.35C268.711 191.287 268.612 191.16 268.58 191.038C268.455 190.472 268.509 189.89 268.509 189.313C268.504 177.966 268.504 166.625 268.509 155.278C268.509 151.594 268.455 147.906 268.365 144.222C268.329 142.703 268.289 141.19 268.096 139.681C268.051 139.327 268.042 138.961 268.011 138.602C267.719 135.109 266.854 131.817 265.396 128.758C264.239 126.323 262.687 124.307 260.695 122.783C259.193 121.629 257.546 120.872 255.811 120.38C253.891 119.835 251.935 119.729 249.971 119.782C249.666 119.793 249.361 119.824 249.056 119.84C246.136 120.015 243.4 120.989 240.825 122.582C238.084 124.28 235.743 126.588 233.716 129.34C231.047 132.955 229.311 137.125 228.418 141.788C228.217 142.841 228.077 143.92 227.983 144.995C227.759 147.651 227.571 150.314 227.503 152.991C227.391 157.543 227.324 162.094 227.333 166.646C227.346 174.087 227.337 181.533 227.333 188.974C227.333 189.625 227.315 190.276 227.297 190.922C227.293 191.102 227.1 191.366 226.974 191.382C226.916 191.388 226.853 191.43 226.795 191.43C224.283 191.43 221.776 191.425 219.264 191.419C219.013 191.419 218.77 191.171 218.761 190.917C218.752 190.7 218.73 190.483 218.73 190.271C218.725 189.694 218.73 189.117 218.73 188.535C218.725 171.192 218.725 153.849 218.725 136.511Z" fill="white"/>
<path d="M422.667 135.458C422.667 127.8 422.667 120.136 422.667 112.478C422.667 111.901 422.681 111.324 422.717 110.748C422.726 110.636 422.851 110.509 422.95 110.446C423.049 110.382 423.183 110.377 423.3 110.377C425.812 110.372 428.323 110.372 430.835 110.377C430.956 110.377 431.091 110.393 431.194 110.457C431.293 110.52 431.423 110.647 431.436 110.758C431.481 111.113 431.486 111.478 431.486 111.838C431.49 114.008 431.486 116.172 431.486 118.342C431.486 128.244 431.468 138.146 431.495 148.043C431.504 151.663 431.315 155.267 431.14 158.871C430.943 160.586 430.817 162.316 430.571 164.026C430.333 165.666 430.055 167.291 429.696 168.895C428.754 173.07 427.166 176.86 424.847 180.215C421.914 184.46 418.245 187.481 413.872 189.307C412.369 189.932 410.83 190.382 409.261 190.715C406.107 191.387 402.936 191.588 399.747 191.361C397.975 191.234 396.208 191.006 394.468 190.583C390.202 189.556 386.313 187.566 382.927 184.29C379.935 181.395 377.688 177.834 376.091 173.695C375.226 171.451 374.633 169.101 374.203 166.693C373.849 164.714 373.593 162.719 373.382 160.707C373.203 158.982 373.131 157.252 373.023 155.526C372.835 152.494 372.817 149.461 372.817 146.429C372.821 135.299 372.817 124.169 372.821 113.039C372.821 112.319 372.839 111.594 372.853 110.875C372.857 110.711 373.068 110.446 373.194 110.425C373.256 110.414 373.315 110.382 373.373 110.382C375.885 110.377 378.397 110.372 380.904 110.372C380.962 110.372 381.025 110.409 381.083 110.409C381.209 110.414 381.465 110.684 381.465 110.811C381.478 111.314 381.496 111.822 381.496 112.325C381.501 116.876 381.496 121.433 381.496 125.984C381.496 132.923 381.487 139.861 381.501 146.799C381.505 149.472 381.545 152.144 381.581 154.822C381.599 156.05 381.653 157.278 381.779 158.501C381.841 159.072 381.882 159.649 381.9 160.231C381.945 161.607 382.232 162.946 382.371 164.312C382.94 167.307 383.954 170.07 385.515 172.541C387.426 175.568 389.884 177.775 392.781 179.315C394.459 180.21 396.222 180.776 398.043 181.147C400.115 181.57 402.192 181.623 404.268 181.438C407.04 181.194 409.588 180.57 412.36 178.866C415.823 176.738 418.514 173.679 420.308 169.551C421.21 167.471 421.757 165.275 422.008 162.957C422.241 160.803 422.344 158.643 422.457 156.479C422.627 153.155 422.658 149.837 422.658 146.513C422.667 142.825 422.667 139.141 422.667 135.458Z" fill="white"/>
<path d="M67.4717 150.71C67.4717 138.135 67.4717 125.556 67.4717 112.981C67.4717 112.261 67.4941 111.536 67.5076 110.816C67.512 110.684 67.7677 110.414 67.8888 110.409C68.0099 110.404 68.131 110.366 68.2521 110.366C70.7012 110.366 73.1547 110.366 75.6037 110.372C75.7248 110.372 75.8414 110.414 75.9625 110.441C76.0881 110.467 76.1554 110.573 76.2002 110.726C76.2989 111.076 76.272 111.441 76.272 111.795C76.2765 114.542 76.272 117.289 76.2765 120.036C76.2765 120.321 76.2406 120.618 76.3438 120.888C76.3662 120.946 76.3886 121.031 76.429 121.057C76.5546 121.126 76.6891 121.126 76.7564 121.025C77.0614 120.57 77.353 120.104 77.649 119.649C78.6896 118.035 79.811 116.506 81.04 115.093C82.4035 113.521 83.8882 112.134 85.5388 111.002C86.9741 110.017 88.4947 109.25 90.1139 108.816C91.307 108.493 92.518 108.255 93.7515 108.292C95.2945 108.334 96.7881 108.694 98.2369 109.319C99.2102 109.742 100.184 110.176 101.04 110.89C101.161 110.991 101.188 111.118 101.134 111.271C101.112 111.335 101.112 111.42 101.081 111.478C99.7305 114.061 98.3804 116.638 97.0303 119.221C96.9631 119.353 96.658 119.475 96.5369 119.416C96.3082 119.316 96.0839 119.205 95.8552 119.115C95.2182 118.855 94.5723 118.644 93.922 118.443C92.8903 118.13 91.8542 118.13 90.8226 118.326C89.4276 118.591 88.0955 119.125 86.8575 119.962C84.7538 121.38 82.9866 123.243 81.5961 125.593C80.7484 127.016 80.0577 128.54 79.4566 130.128C78.7345 132.044 78.1917 134.039 77.7342 136.061C77.5638 136.828 77.4337 137.612 77.335 138.395C77.1736 139.681 77.0031 140.967 76.9179 142.264C76.6936 145.502 76.4963 148.747 76.4335 152.001C76.3348 157.204 76.2585 162.406 76.2675 167.614C76.281 174.986 76.272 182.358 76.2675 189.731C76.2675 190.159 76.3124 190.599 76.1733 191.011C76.124 191.16 76.0388 191.26 75.9221 191.292C75.8055 191.324 75.6799 191.355 75.5633 191.355C73.1143 191.361 70.6608 191.361 68.2118 191.355C68.149 191.355 68.0907 191.345 68.0279 191.34C67.7273 191.324 67.4941 191.017 67.4851 190.609C67.4762 190.175 67.4717 189.741 67.4717 189.307C67.4717 186.995 67.4717 184.682 67.4717 182.369C67.4717 171.816 67.4717 161.263 67.4717 150.71Z" fill="white"/>
<path d="M447.343 150.615C447.343 138.046 447.343 125.471 447.343 112.902C447.343 112.182 447.356 111.457 447.392 110.737C447.396 110.626 447.535 110.52 447.63 110.43C447.67 110.393 447.746 110.393 447.805 110.393C450.437 110.393 453.07 110.399 455.699 110.404C455.757 110.404 455.838 110.399 455.878 110.441C455.968 110.531 456.098 110.642 456.107 110.758C456.147 111.187 456.152 111.621 456.152 112.055C456.156 114.802 456.152 117.549 456.156 120.29C456.156 120.507 456.17 120.724 456.197 120.936C456.201 120.983 456.268 121.031 456.313 121.063C456.363 121.1 456.457 121.153 456.47 121.137C456.641 120.93 456.816 120.724 456.959 120.496C457.65 119.39 458.372 118.316 459.135 117.279C460.346 115.638 461.66 114.13 463.122 112.807C464.737 111.351 466.468 110.15 468.401 109.372C469.272 109.023 470.146 108.705 471.061 108.578C471.73 108.488 472.389 108.313 473.066 108.292C474.614 108.239 476.116 108.557 477.578 109.113C478.74 109.552 479.884 110.07 480.911 110.88C481.041 110.981 481.073 111.092 481.01 111.24C480.956 111.367 480.925 111.51 480.862 111.632C479.579 114.087 478.292 116.543 477 118.999C476.937 119.12 476.856 119.242 476.758 119.316C476.663 119.385 476.524 119.438 476.417 119.411C476.242 119.374 476.076 119.263 475.905 119.194C475.21 118.925 474.515 118.66 473.802 118.443C472.77 118.136 471.734 118.12 470.702 118.311C469.24 118.581 467.854 119.147 466.576 120.031C464.598 121.401 462.911 123.153 461.57 125.36C460.637 126.895 459.879 128.541 459.247 130.266C458.471 132.388 457.856 134.579 457.43 136.839C457.246 137.824 457.08 138.824 457 139.829C456.838 141.84 456.56 143.841 456.524 145.868C456.511 146.588 456.484 147.313 456.43 148.033C456.246 150.557 456.21 153.081 456.188 155.611C456.17 157.993 456.156 160.38 456.152 162.761C456.147 171.647 456.152 180.533 456.147 189.419C456.147 189.922 456.206 190.435 456.076 190.927C456.044 191.049 455.941 191.181 455.842 191.229C455.676 191.303 455.488 191.335 455.309 191.335C453.837 191.345 452.371 191.345 450.899 191.34C449.859 191.335 448.818 191.319 447.778 191.303C447.639 191.303 447.405 191.054 447.392 190.906C447.378 190.763 447.338 190.62 447.338 190.483C447.329 189.906 447.329 189.329 447.329 188.747C447.343 176.045 447.343 163.327 447.343 150.615Z" fill="white"/>
<path d="M115.989 150.71C115.989 163.353 115.989 175.991 115.989 188.635C115.989 189.354 115.967 190.08 115.949 190.799C115.94 191.08 115.711 191.334 115.464 191.334C112.957 191.334 110.445 191.334 107.938 191.334C107.628 191.334 107.386 191.022 107.377 190.64C107.373 190.498 107.373 190.349 107.373 190.207C107.373 189.847 107.373 189.487 107.373 189.122C107.373 163.623 107.373 138.124 107.373 112.626C107.373 112.049 107.386 111.472 107.399 110.895C107.404 110.636 107.637 110.403 107.893 110.392C107.956 110.392 108.014 110.377 108.077 110.377C110.463 110.377 112.854 110.377 115.24 110.377C115.361 110.377 115.482 110.414 115.603 110.419C115.724 110.424 115.958 110.699 115.962 110.842C115.976 111.202 115.998 111.562 115.998 111.922C116.002 113.875 115.998 115.822 115.998 117.775C115.989 128.746 115.989 139.728 115.989 150.71Z" fill="white"/>
</svg>
